<svg xmlns="http://www.w3.org/2000/svg" width="64" height="64" viewBox="0 0 64 64">
    <path fill="none" fill-rule="evenodd" stroke="#989DB3" stroke-linecap="round" stroke-linejoin="round" stroke-width="2" d="M32.808 31.798l14.034 14.034.007 1.017a.72.72 0 0 1-1.017-.007L31.798 32.808 17.984 46.622c-.293.293-.756.304-1.035.025-.28-.279-.268-.742.025-1.035l13.814-13.814-13.63-13.63a.72.72 0 0 1-.007-1.017.72.72 0 0 1 1.017.007l13.63 13.63 13.814-13.814 1.035-.025c.28.279.268.742-.025 1.035L32.808 31.798zm0 0l-1.01-1.01-1.01 1.01 1.01 1.01 1.01-1.01z"/>
</svg>
