<svg xmlns="http://www.w3.org/2000/svg" xmlns:xlink="http://www.w3.org/1999/xlink" width="152" height="150" viewBox="0 0 152 150">
    <defs>
        <path id="b" d="M139.644 89.533H14.986A4.98 4.98 0 0 1 10 84.559V4.974A4.98 4.98 0 0 1 14.986 0h124.658a4.98 4.98 0 0 1 4.986 4.974v79.585a4.98 4.98 0 0 1-4.986 4.974z"/>
        <filter id="a" width="110.4%" height="115.6%" x="-5.2%" y="-5.6%" filterUnits="objectBoundingBox">
            <feOffset dy="2" in="SourceAlpha" result="shadowOffsetOuter1"/>
            <feGaussianBlur in="shadowOffsetOuter1" result="shadowBlurOuter1" stdDeviation="2"/>
            <feColorMatrix in="shadowBlurOuter1" values="0 0 0 0 0.596078431 0 0 0 0 0.615686275 0 0 0 0 0.701960784 0 0 0 0.3 0"/>
        </filter>
        <path id="d" d="M79 85.323c-13.284 0-69-42.805-69-42.805C10 41.128 12.232 40 14.986 40h124.658c2.754 0 4.986 1.127 4.986 2.518 0 0-52.346 42.805-65.63 42.805z"/>
        <filter id="c" width="100.4%" height="102.2%" x="-.2%" y="-.6%" filterUnits="objectBoundingBox">
            <feOffset dy=".5" in="SourceAlpha" result="shadowOffsetOuter1"/>
            <feColorMatrix in="shadowOffsetOuter1" values="0 0 0 0 0.952941176 0 0 0 0 0.956862745 0 0 0 0 0.97254902 0 0 0 1 0"/>
        </filter>
        <path id="f" d="M79 45.323c-13.284 0-69-42.805-69-42.805C10 1.128 12.232 0 14.986 0h124.658c2.754 0 4.986 1.127 4.986 2.518 0 0-52.346 42.805-65.63 42.805z"/>
        <filter id="e" width="110.4%" height="130.9%" x="-5.2%" y="-11%" filterUnits="objectBoundingBox">
            <feOffset dy="2" in="SourceAlpha" result="shadowOffsetOuter1"/>
            <feGaussianBlur in="shadowOffsetOuter1" result="shadowBlurOuter1" stdDeviation="2"/>
            <feColorMatrix in="shadowBlurOuter1" values="0 0 0 0 0.596078431 0 0 0 0 0.615686275 0 0 0 0 0.701960784 0 0 0 0.3 0"/>
        </filter>
    </defs>
    <g fill="none" fill-rule="evenodd">
        <circle cx="75" cy="75" r="75" fill="#E4E6EB"/>
        <g fill-rule="nonzero">
            <path fill="#989DB3" d="M132.037 124.914H7.963C5.222 124.914 3 122.7 3 119.969V40.858c0-2.73 2.222-4.944 4.963-4.944h124.074c2.741 0 4.963 2.213 4.963 4.944v79.111c0 2.73-2.222 4.945-4.963 4.945z"/>
            <path fill="#E4E6EB" d="M137.037 120H12.963C10.222 120 8 117.786 8 115.056V35.944C8 33.214 10.222 31 12.963 31h124.074c2.741 0 4.963 2.214 4.963 4.944v79.112c0 2.73-2.222 4.944-4.963 4.944z"/>
            <g transform="translate(3 25)">
                <use fill="#000" filter="url(#a)" xlink:href="#b"/>
                <use fill="#FFF" fill-rule="evenodd" xlink:href="#b"/>
            </g>
            <g transform="rotate(180 78.815 75.161)">
                <use fill="#000" filter="url(#c)" xlink:href="#d"/>
                <use fill="#FFF" fill-rule="evenodd" xlink:href="#d"/>
            </g>
            <g transform="translate(3 25)">
                <use fill="#000" filter="url(#e)" xlink:href="#f"/>
                <use fill="#FFF" fill-rule="evenodd" xlink:href="#f"/>
            </g>
        </g>
        <path fill="#989DB3" fill-rule="nonzero" d="M95.278 92.392H51.722c-1.503 0-2.722-1.343-2.722-3s1.219-3 2.722-3h43.556c1.503 0 2.722 1.343 2.722 3s-1.219 3-2.722 3z"/>
        <path fill="#E4E6EB" fill-rule="nonzero" d="M112.57 105.392H51.89c-1.596 0-2.89-1.343-2.89-3s1.294-3 2.89-3h60.68c1.596 0 2.89 1.343 2.89 3s-1.294 3-2.89 3z"/>
        <circle cx="33" cy="95" r="11" fill="#989DB3"/>
    </g>
</svg>
