<?xml version="1.0" encoding="UTF-8"?>
<svg viewBox="0 0 29 21" version="1.1" xmlns="http://www.w3.org/2000/svg" xmlns:xlink="http://www.w3.org/1999/xlink">
    <title>Combined Shape</title>
    <g id="Pages" stroke="none" stroke-width="1" fill="none" fill-rule="evenodd">
        <g class="i-icon _fill" id="ГЛАВНАЯ_Лента-врача" transform="translate(-882.000000, -2001.000000)" fill="#989DB3">
            <g id="form-zakl" transform="translate(688.000000, 1768.000000)">
                <path d="M202,233 L207,233 L207,238 L202,238 L202,233 Z M210,233 L215,233 L215,238 L210,238 L210,233 Z M218,233 L223,233 L223,238 L218,238 L218,233 Z M194,249 L199,249 L199,254 L194,254 L194,249 Z M202,249 L207,249 L207,254 L202,254 L202,249 Z M210,249 L215,249 L215,254 L210,254 L210,249 Z M194,241 L199,241 L199,246 L194,246 L194,241 Z M202,241 L207,241 L207,246 L202,246 L202,241 Z M210,241 L215,241 L215,246 L210,246 L210,241 Z M218,241 L223,241 L223,246 L218,246 L218,241 Z" id="Combined-Shape"></path>
            </g>
        </g>
    </g>
</svg>