<svg xmlns="http://www.w3.org/2000/svg" width="18" height="16" viewBox="0 0 18 16">
    <g fill="#989DB3" fill-rule="nonzero">
        <path d="M6.133 6.574a.45.45 0 0 0 0 .638l2.391 2.391a.44.44 0 0 0 .635 0l2.392-2.391a.45.45 0 0 0 0-.638.45.45 0 0 0-.638 0l-1.62 1.62V.45c0-.25-.2-.451-.451-.451-.25 0-.451.2-.451.45v7.744l-1.62-1.62a.45.45 0 0 0-.638 0z"/>
        <path d="M17.98 10.157l-1.913-5.79a.5.5 0 0 0-.3-.295l-.054-.02a.654.654 0 0 0-.227-.042h-3.447c-.305 0-.549.205-.549.46s.244.46.55.46h3.075l1.616 4.896h-4.273c-.305 0-.549.205-.549.46v.415c0 .61-.59 1.104-1.318 1.104H7.238c-.728 0-1.318-.494-1.318-1.104v-.415c0-.255-.244-.46-.55-.46H1.266L2.89 4.92h3.076c.305 0 .549-.204.549-.46 0-.255-.244-.459-.55-.459h-3.45a.654.654 0 0 0-.227.04l-.053.021a.49.49 0 0 0-.301.297L.02 10.146a.43.43 0 0 0-.02.123v2.414C0 14.512 1.778 16 3.963 16h10.074C16.222 16 18 14.512 18 12.683V10.28a.303.303 0 0 0-.02-.122z"/>
    </g>
</svg>
