<svg xmlns="http://www.w3.org/2000/svg" xmlns:xlink="http://www.w3.org/1999/xlink" width="122" height="122" viewBox="0 0 122 122">
    <defs>
        <circle id="a" cx="61" cy="61" r="61"/>
        <path id="d" d="M88.37 94H-2.37C-4.375 94-6 92.16-6 89.889V24.11C-6 21.841-4.375 20-2.37 20h90.74c2.005 0 3.63 1.84 3.63 4.111V89.89C92 92.159 90.375 94 88.37 94z"/>
        <filter id="c" width="114.3%" height="118.9%" x="-7.1%" y="-6.8%" filterUnits="objectBoundingBox">
            <feOffset dy="2" in="SourceAlpha" result="shadowOffsetOuter1"/>
            <feGaussianBlur in="shadowOffsetOuter1" result="shadowBlurOuter1" stdDeviation="2"/>
            <feColorMatrix in="shadowBlurOuter1" values="0 0 0 0 0.596078431 0 0 0 0 0.615686275 0 0 0 0 0.701960784 0 0 0 0.3 0"/>
        </filter>
        <path id="f" d="M13 5.994A3.997 3.997 0 0 1 17.008 2h58.54L87 13.813v82.189A4.001 4.001 0 0 1 82.995 100h-65.99A3.997 3.997 0 0 1 13 96.006V5.994z"/>
        <filter id="e" width="118.9%" height="114.3%" x="-9.5%" y="-5.1%" filterUnits="objectBoundingBox">
            <feOffset dy="2" in="SourceAlpha" result="shadowOffsetOuter1"/>
            <feGaussianBlur in="shadowOffsetOuter1" result="shadowBlurOuter1" stdDeviation="2"/>
            <feColorMatrix in="shadowBlurOuter1" values="0 0 0 0 0.596078431 0 0 0 0 0.615686275 0 0 0 0 0.701960784 0 0 0 0.3 0"/>
        </filter>
    </defs>
    <g fill="none" fill-rule="evenodd">
        <g>
            <mask id="b" fill="#fff">
                <use xlink:href="#a"/>
            </mask>
            <use fill="#E4E6EB" xlink:href="#a"/>
            <g mask="url(#b)">
                <path fill="#989DB3" fill-rule="nonzero" d="M17.5 130.87V40.13c0-2.005 1.816-3.63 4.056-3.63h64.888c2.24 0 4.056 1.625 4.056 3.63v90.74c0 2.005-1.816 3.63-4.056 3.63H21.556c-2.24 0-4.056-1.625-4.056-3.63z"/>
                <g fill-rule="nonzero" transform="rotate(90 40.5 76.5)">
                    <use fill="#000" filter="url(#c)" xlink:href="#d"/>
                    <use fill="#E4E6EB" fill-rule="evenodd" xlink:href="#d"/>
                </g>
                <g transform="translate(17 22)">
                    <use fill="#000" filter="url(#e)" xlink:href="#f"/>
                    <use fill="#FFF" xlink:href="#f"/>
                </g>
                <path fill="#989DB3" d="M93.793 36.639a1.957 1.957 0 0 1-1.975-1.982l.077-9.642c.009-1.103.634-1.363 1.415-.562l10.392 10.66c.773.793.506 1.443-.591 1.452l-9.318.074z"/>
                <path stroke="#989DB3" stroke-linecap="round" stroke-linejoin="round" stroke-width="4" d="M43 47h28"/>
                <path stroke="#E5E7F1" stroke-linecap="round" stroke-linejoin="round" stroke-width="4" d="M43 56h47M43 65h47M43 75h47M43 84h47M43 93h47M43 103h47"/>
            </g>
        </g>
        <g transform="translate(98 7)">
            <circle cx="12" cy="12" r="12" fill="#8BC34A"/>
            <path stroke="#FFF" stroke-linecap="round" stroke-linejoin="round" stroke-width="2" d="M8 13l1.882 2L16 9"/>
        </g>
    </g>
</svg>
