<svg xmlns="http://www.w3.org/2000/svg" width="22" height="12" viewBox="0 0 22 12">
    <g fill="#989DB3" fill-rule="nonzero">
        <path d="M10.96 11.929c-2.465 0-5.118-.964-7.672-2.788C1.378 7.778.201 6.427.151 6.371a.62.62 0 0 1 0-.812c.05-.057 1.228-1.408 3.137-2.771C5.842.964 8.495 0 10.96 0s5.117.964 7.671 2.788c1.91 1.363 3.088 2.714 3.137 2.77a.62.62 0 0 1 0 .812c-.05.057-1.228 1.408-3.137 2.771-2.554 1.824-5.206 2.788-7.671 2.788zM1.47 5.965c.476.485 1.376 1.34 2.563 2.185 1.628 1.158 4.151 2.54 6.927 2.54 2.775 0 5.298-1.382 6.926-2.54a19.564 19.564 0 0 0 2.564-2.185 19.56 19.56 0 0 0-2.564-2.186c-1.628-1.158-4.15-2.54-6.926-2.54s-5.3 1.382-6.927 2.54A19.557 19.557 0 0 0 1.47 5.965z"/>
        <path d="M10.843 9.686A3.847 3.847 0 0 1 7 5.843 3.847 3.847 0 0 1 10.843 2c.932 0 1.83.338 2.531.951a.62.62 0 1 1-.817.933 2.6 2.6 0 0 0-1.714-.644A2.606 2.606 0 0 0 8.24 5.843a2.606 2.606 0 0 0 2.603 2.603 2.606 2.606 0 0 0 2.603-2.603.62.62 0 0 1 1.24 0 3.847 3.847 0 0 1-3.843 3.843z"/>
        <path d="M11 7a1.001 1.001 0 0 1 0-2 1.001 1.001 0 0 1 0 2z"/>
    </g>
</svg>
