<svg xmlns="http://www.w3.org/2000/svg" width="33" height="32" viewBox="0 0 33 32">
    <path fill="#C03C30" fill-rule="evenodd" d="M2.667 0h28a2 2 0 0 1 2 2v28a2 2 0 0 1-2 2h-28a2 2 0 0 1-2-2V2a2 2 0 0 1 2-2zm21.12 12.8c-.006.59-.012 1.182-.015 1.772-.593.006-1.182.009-1.772.012v1.765c.59.003 1.182.006 1.772.013.006.59.006 1.179.012 1.771.586 0 1.176-.003 1.765 0 .004-.592.006-1.182.013-1.774l1.771-.01v-1.765c-.59-.003-1.182-.006-1.771-.012-.004-.59-.01-1.182-.013-1.772h-1.762zM7.07 16.008c-.057 2.67 1.82 5.218 4.403 6.05 2.432.8 5.423.201 7.041-1.84 1.182-1.43 1.45-3.336 1.323-5.117-2.083-.019-4.166-.012-6.246-.01-.004.728 0 1.452.003 2.179 1.247.034 2.494.018 3.742.043-.315 1.057-1.032 2.04-2.12 2.423-2.103.907-4.784-.279-5.445-2.439-.799-2.068.508-4.564 2.666-5.166 1.337-.461 2.716.058 3.86.74.58-.532 1.123-1.1 1.656-1.675-1.3-1.066-2.972-1.72-4.69-1.576-3.371.039-6.321 3.088-6.193 6.388z"/>
</svg>
