<svg xmlns="http://www.w3.org/2000/svg" width="78" height="89" viewBox="0 0 78 89">
    <g fill="#FFF" fill-rule="evenodd">
        <path d="M23.09 41.023c.621 0 .924-.303.924-.927v-10.33l1.62 2.412v.269c0 .534.243 1.104.925 1.104.804 0 .924-.692.924-1.104v-.27l1.62-2.412v10.331c0 .624.302.927.924.927.622 0 .925-.303.925-.927V27.192h-2.268l-2.125 3.076-2.113-3.057-.013-.019h-2.268v12.904c0 .624.303.927.925.927M43.43 29.046c.447 0 .924-.243.924-.927 0-.683-.477-.927-.924-.927h-7.862v13.831h7.862c.447 0 .924-.243.924-.927 0-.683-.477-.927-.924-.927h-6.013v-4.134h2.544c.447 0 .924-.244.924-.927 0-.684-.477-.927-.924-.927h-2.544v-4.135h6.013zM51.607 29.046h.221c.757.005.896 0 1.245.718l1.462 2.985.067.14c.214.439.369.755.369 1.29 0 .435-.139.726-.33 1.128l-1.55 3.145c-.303.623-.459.717-1.194.717h-.29V29.046zm-2.65 10.123c-.447 0-.924.244-.924.927 0 .684.477.927.924.927h2.923c1.453 0 2.218-.456 2.821-1.685l1.603-3.214c.36-.725.515-1.312.515-1.963 0-.823-.18-1.342-.533-2.07l-1.55-3.108c-.65-1.306-1.381-1.79-2.698-1.79h-2.94c-.667 0-1.065.346-1.065.926 0 .607.386.927 1.118.927h.607V39.17h-.801zM25.57 51.451c.323-.65.433-.718 1.175-.718h3.477c.41 0 .889-.242.889-.927 0-.683-.46-.927-.889-.927h-3.53c-1.371 0-2.143.482-2.75 1.72l-1.62 3.268c-.378.756-.498 1.237-.498 1.98 0 .639.143 1.2.48 1.875l1.62 3.286c.585 1.193 1.387 1.702 2.68 1.702h3.618c.41 0 .889-.243.889-.927 0-.683-.46-.927-.889-.927h-3.407c-.788 0-.94-.051-1.28-.753l-1.498-3.056-.02-.042c-.2-.4-.345-.69-.345-1.157 0-.536.139-.852.365-1.324l1.532-3.073zM37.944 57.853l1.333-4.645 1.316 4.645h-2.649zm2.291-8.04c-.116-.435-.33-.934-.958-.934-.613 0-.807.481-.94.932l-3.451 11.96c-.053.18-.009.375.122.551a.99.99 0 0 0 .765.388c.632 0 .894-.573.993-.913l.66-2.09h3.685l.642 2.089c.1.341.36.914.993.914a.989.989 0 0 0 .765-.388c.131-.176.175-.372.122-.55l-3.398-11.96zM53.098 54.867h-3.125v-4.134h3.125c1.635 0 1.964.869 1.964 2.27 0 1.255-.642 1.864-1.964 1.864m0 5.989h-3.125v-4.134h3.125c1.635 0 1.964.868 1.964 2.27 0 1.254-.642 1.864-1.964 1.864m3.812-7.853c0-2.659-1.354-4.124-3.812-4.124h-4.974V62.71h4.974c2.316 0 3.812-1.46 3.812-3.718 0-1.354-.183-2.269-1.141-3.196.8-.727 1.141-1.565 1.141-2.793"/>
        <path d="M65.47 6.552H22.69c-.968 0-1.753.787-1.753 1.759 0 .971.785 1.759 1.753 1.759h42.78c1.74 0 3.155 1.42 3.155 3.166v63.38a3.165 3.165 0 0 1-3.156 3.166H44.533c-.07 0-.136.013-.203.02l-.008.001c-.064.008-.127.014-.188.029-.378.063-.74.244-1.017.553L39.2 84.81l-3.27-3.7-.694-.755a1.737 1.737 0 0 0-.987-.534c-.027-.006-.056-.007-.084-.012-.06-.007-.12-.016-.18-.018-.036-.002-.068-.01-.103-.01H12.93a3.164 3.164 0 0 1-3.155-3.166V23.144c0-.971-.786-1.759-1.754-1.759s-1.753.788-1.753 1.76v53.47c0 3.687 2.989 6.685 6.662 6.685h20.243l.156.17 4.094 4.633c.454.514 1.102.809 1.777.809.675 0 1.323-.295 1.777-.81l4.087-4.625.158-.177h20.247c3.674 0 6.663-2.998 6.663-6.684v-63.38c0-3.686-2.989-6.684-6.663-6.684M6.268 14.687c0 .971.785 1.759 1.753 1.759.968 0 1.753-.788 1.753-1.76v-4.528h4.515c.968 0 1.753-.788 1.753-1.76 0-.97-.785-1.758-1.753-1.758H9.774V2.11c0-.971-.785-1.758-1.753-1.758-.968 0-1.753.787-1.753 1.759V6.64H1.753C.785 6.64 0 7.427 0 8.399c0 .971.785 1.759 1.753 1.759h4.515v4.529z"/>
    </g>
</svg>
