<?xml version="1.0" encoding="UTF-8"?>
<svg width="78px" height="89px" viewBox="0 0 78 89" version="1.1" xmlns="http://www.w3.org/2000/svg" xmlns:xlink="http://www.w3.org/1999/xlink">
    <!-- Generator: Sketch 44.1 (41455) - http://www.bohemiancoding.com/sketch -->
    <title>LOGO / color without txt</title>
    <desc>Created with Sketch.</desc>
    <defs></defs>
    <g id="Symbols" stroke="none" stroke-width="1" fill="none" fill-rule="evenodd">
        <g id="LOGO-/-color-without-txt">
            <g id="Logo-2">
                <g id="Logo">
                    <path d="M23.0895935,41.0234067 C23.7112948,41.0234067 24.0139052,40.7201735 24.0139052,40.0961182 L24.0139052,29.7654344 L25.6342558,32.1775806 L25.6342558,32.4470431 C25.6342558,32.9810431 25.8769052,33.5512763 26.5585675,33.5512763 C27.3626065,33.5512763 27.4825286,32.8593277 27.4825286,32.4470431 L27.4825286,32.1775806 L29.1028792,29.7650826 L29.1028792,40.0961182 C29.1028792,40.7201735 29.4054896,41.0234067 30.0271909,41.0234067 C30.6492429,41.0234067 30.9515026,40.7201735 30.9515026,40.0961182 L30.9515026,27.1921735 L28.6838532,27.1921735 L26.5585675,30.2677743 L24.4462558,27.2108178 L24.4332818,27.1921735 L22.1652818,27.1921735 L22.1652818,40.0961182 C22.1652818,40.7201735 22.4675416,41.0234067 23.0895935,41.0234067" id="Fill-1" fill="#333333"></path>
                    <path d="M43.4298506,29.046434 C43.8765779,29.046434 44.3541623,28.8030032 44.3541623,28.1191455 C44.3541623,27.4356395 43.8765779,27.1922087 43.4298506,27.1922087 L35.5679416,27.1922087 L35.5679416,41.0234419 L43.4298506,41.0234419 C43.8765779,41.0234419 44.3541623,40.7796593 44.3541623,40.0961534 C44.3541623,39.4126474 43.8765779,39.1688648 43.4298506,39.1688648 L37.4165649,39.1688648 L37.4165649,35.0347621 L39.9608766,35.0347621 C40.4079545,35.0347621 40.8851883,34.7913312 40.8851883,34.1078253 C40.8851883,33.4239676 40.4079545,33.1805368 39.9608766,33.1805368 L37.4165649,33.1805368 L37.4165649,29.046434 L43.4298506,29.046434 Z" id="Fill-3" fill="#333333"></path>
                    <path d="M51.6067481,29.046434 L51.8280078,29.046434 C52.5850597,29.0513589 52.7235662,29.0457304 53.0731636,29.7637107 L54.5346701,32.7489043 L54.6023455,32.8889123 C54.8162416,33.3275802 54.9705273,33.644181 54.9705273,34.1785328 C54.9705273,34.6143866 54.8320208,34.9049557 54.6405662,35.3070387 L53.0906961,38.4515881 C52.7884364,39.0752917 52.6323974,39.1688648 51.8974364,39.1688648 L51.6067481,39.1688648 L51.6067481,29.046434 Z M48.9568909,39.1688648 C48.5101636,39.1688648 48.0325792,39.4126474 48.0325792,40.0961534 C48.0325792,40.7796593 48.5101636,41.0234419 48.9568909,41.0234419 L51.8799039,41.0234419 C53.3329948,41.0234419 54.097761,40.5668332 54.7012286,39.3384221 L56.3036961,36.123517 C56.6648649,35.398853 56.8188,34.8117344 56.8188,34.1605921 C56.8188,33.3381336 56.6396182,32.8189083 56.2861636,32.0917818 L54.7366442,28.9827621 C54.085839,27.6773115 53.3547351,27.1922087 52.0383974,27.1922087 L49.0978519,27.1922087 C48.4309169,27.1922087 48.0325792,27.5387107 48.0325792,28.1191455 C48.0325792,28.7259636 48.4193455,29.046434 49.1508,29.046434 L49.7584753,29.046434 L49.7584753,39.1688648 L48.9568909,39.1688648 Z" id="Fill-5" fill="#333333"></path>
                    <path d="M25.5691403,51.4510055 C25.8934909,50.800215 26.0032442,50.7333771 26.7448675,50.7333771 L30.2222571,50.7333771 C30.6321662,50.7333771 31.1108026,50.4906498 31.1108026,49.8060885 C31.1108026,49.1225826 30.6518026,48.8788 30.2222571,48.8788 L26.6922701,48.8788 C25.3205299,48.8788 24.5491013,49.3614403 23.9410753,50.5989976 L22.3210753,53.8670213 C21.9444779,54.6229937 21.8235039,55.1042269 21.8235039,55.8475352 C21.8235039,56.4860134 21.9672701,57.0467486 22.3035429,57.7218119 L23.9235429,61.0077763 C24.5091273,62.2013613 25.3110623,62.710385 26.6039065,62.710385 L30.2222571,62.710385 C30.6321662,62.710385 31.1108026,62.4673059 31.1108026,61.7830964 C31.1108026,61.0995905 30.6518026,60.8558079 30.2222571,60.8558079 L26.8153481,60.8558079 C26.0267377,60.8558079 25.8752571,60.8048 25.5340753,60.1033534 L24.0371532,57.0467486 L24.0161143,57.0045352 C23.8162442,56.6042111 23.6721273,56.3154008 23.6721273,55.8475352 C23.6721273,55.3124798 23.8109844,54.9958791 24.0371532,54.5244957 L25.5691403,51.4510055 Z" id="Fill-7" fill="#333333"></path>
                    <path d="M37.9444325,57.8527791 L39.2772506,53.2075419 L40.592887,57.8527791 L37.9444325,57.8527791 Z M40.2352247,49.8125261 C40.1188091,49.3777277 39.9045623,48.8789055 39.2772506,48.8789055 C38.6639649,48.8789055 38.4704065,49.3601387 38.3375104,49.8114708 L34.8857182,61.7708897 C34.8334714,61.9502968 34.8773026,62.1462375 35.0084455,62.3221269 C35.1848221,62.5578186 35.4849779,62.7104905 35.7732117,62.7104905 C36.4054325,62.7104905 36.6666662,62.1370913 36.7659,61.7965696 L37.4251208,59.7070043 L41.1114974,59.7070043 L41.7531857,61.7955142 C41.8527701,62.1370913 42.1136532,62.7104905 42.7462247,62.7104905 C43.0344584,62.7104905 43.3342636,62.5578186 43.5106403,62.3221269 C43.6421338,62.1462375 43.6856143,61.9502968 43.6333675,61.7712415 L40.2352247,49.8125261 Z" id="Fill-9" fill="#333333"></path>
                    <path d="M53.0983753,54.8674798 L49.972687,54.8674798 L49.972687,50.7333771 L53.0983753,50.7333771 C54.7334532,50.7333771 55.0620117,51.6019186 55.0620117,53.0034047 C55.0620117,54.2578474 54.4196221,54.8674798 53.0983753,54.8674798 M53.0983753,60.8558079 L49.972687,60.8558079 L49.972687,56.7217051 L53.0983753,56.7217051 C54.7334532,56.7217051 55.0620117,57.5902466 55.0620117,58.9920846 C55.0620117,60.2461755 54.4196221,60.8558079 53.0983753,60.8558079 M56.9102844,53.0034047 C56.9102844,50.3439581 55.5564273,48.8791518 53.0983753,48.8791518 L48.1240636,48.8791518 L48.1240636,62.710385 L53.0983753,62.710385 C55.4140636,62.710385 56.9102844,61.2508553 56.9102844,58.9920846 C56.9102844,57.6384403 56.7272455,56.723464 55.7689208,55.7958237 C56.5684013,55.069049 56.9102844,54.2307605 56.9102844,53.0034047" id="Fill-11" fill="#333333"></path>
                    <path d="M65.4692143,6.55184229 L22.6899935,6.55184229 C21.7218506,6.55184229 20.9367468,7.33912292 20.9367468,8.31073557 C20.9367468,9.28234822 21.7218506,10.0696289 22.6899935,10.0696289 L65.4692143,10.0696289 C67.2091364,10.0696289 68.6250584,11.4897593 68.6250584,13.2356368 L68.6250584,76.6145419 C68.6250584,78.3604194 67.2091364,79.7805498 65.4692143,79.7805498 L44.5326429,79.7805498 C44.4628636,79.7805498 44.3969416,79.7932138 44.3296169,79.8013047 C44.3271623,79.8013047 44.3247078,79.8016565 44.3222532,79.8020083 C44.2584351,79.8097474 44.1953182,79.8160794 44.1339545,79.8305024 C43.7556039,79.8938225 43.3937338,80.074285 43.1174221,80.3834984 L39.1996169,84.8092257 L35.9298117,81.108866 L35.2358766,80.3543008 C34.964474,80.0591585 34.6152273,79.8850281 34.2491494,79.8206526 C34.2217987,79.8150241 34.1930455,79.8139688 34.1649935,79.8090439 C34.1046818,79.8016565 34.0447208,79.7921585 33.9840584,79.7907514 C33.9493442,79.7886407 33.9167338,79.7805498 33.8816688,79.7805498 L12.9303701,79.7805498 C11.1900974,79.7805498 9.77452597,78.3604194 9.77452597,76.6145419 L9.77452597,23.1438344 C9.77452597,22.1722217 8.98942208,21.3849411 8.02127922,21.3849411 C7.05278571,21.3849411 6.26803247,22.1722217 6.26803247,23.1438344 L6.26803247,76.6145419 C6.26803247,80.3001269 9.25661688,83.2983364 12.9303701,83.2983364 L33.1730065,83.2983364 L33.3290455,83.4678937 L37.422526,88.1011704 C37.8773182,88.6154708 38.5249675,88.9102613 39.1996169,88.9102613 L39.1999675,88.9102613 C39.8749675,88.9102613 40.5226169,88.615119 40.9767078,88.1008186 L45.063526,83.4756328 L45.2216688,83.2983364 L65.4692143,83.2983364 C69.1429675,83.2983364 72.1315519,80.3001269 72.1315519,76.6145419 L72.1315519,13.2356368 C72.1315519,9.55005178 69.1429675,6.55184229 65.4692143,6.55184229" id="Fill-76" fill="#3253FA"></path>
                    <path d="M6.26785714,14.6867237 C6.26785714,15.6583364 7.05296104,16.445617 8.0211039,16.445617 C8.98924675,16.445617 9.77435065,15.6583364 9.77435065,14.6867237 L9.77435065,10.1575735 L14.288961,10.1575735 C15.2571039,10.1575735 16.0422078,9.37029289 16.0422078,8.39868024 C16.0422078,7.42706759 15.2571039,6.63978696 14.288961,6.63978696 L9.77435065,6.63978696 L9.77435065,2.11063676 C9.77435065,1.13902411 8.98924675,0.351743478 8.0211039,0.351743478 C7.05296104,0.351743478 6.26785714,1.13902411 6.26785714,2.11063676 L6.26785714,6.63978696 L1.75324675,6.63978696 C0.785103896,6.63978696 0,7.42706759 0,8.39868024 C0,9.37029289 0.785103896,10.1575735 1.75324675,10.1575735 L6.26785714,10.1575735 L6.26785714,14.6867237 Z" id="Fill-78" fill="#3253FA"></path>
                </g>
            </g>
        </g>
    </g>
</svg>