<?xml version="1.0" encoding="UTF-8"?>
<svg width="163px" height="88px" viewBox="0 0 163 88" version="1.1" xmlns="http://www.w3.org/2000/svg" xmlns:xlink="http://www.w3.org/1999/xlink">
    <!-- Generator: Sketch 46.2 (44496) - http://www.bohemiancoding.com/sketch -->
    <title>LOGO / color</title>
    <desc>Created with Sketch.</desc>
    <defs></defs>
    <g id="Symbols" stroke="none" stroke-width="1" fill="none" fill-rule="evenodd">
        <g id="LOGO-/-color">
            <path d="M22.9243117,39.8312332 C23.546013,39.8312332 23.8486234,39.528 23.8486234,38.9039447 L23.8486234,28.5732609 L25.468974,30.9854071 L25.468974,31.2548696 C25.468974,31.7888696 25.7116234,32.3591028 26.3932857,32.3591028 C27.1973247,32.3591028 27.3172468,31.6671542 27.3172468,31.2548696 L27.3172468,30.9854071 L28.9375974,28.5729091 L28.9375974,38.9039447 C28.9375974,39.528 29.2402078,39.8312332 29.8619091,39.8312332 C30.483961,39.8312332 30.7862208,39.528 30.7862208,38.9039447 L30.7862208,26 L28.5185714,26 L26.3932857,29.0756008 L24.280974,26.0186443 L24.268,26 L22,26 L22,38.9039447 C22,39.528 22.3022597,39.8312332 22.9243117,39.8312332" id="Fill-1" fill="#333333"></path>
            <path d="M43.8619091,27.8542253 C44.3086364,27.8542253 44.7862208,27.6107945 44.7862208,26.9269368 C44.7862208,26.2434308 44.3086364,26 43.8619091,26 L36,26 L36,39.8312332 L43.8619091,39.8312332 C44.3086364,39.8312332 44.7862208,39.5874506 44.7862208,38.9039447 C44.7862208,38.2204387 44.3086364,37.9766561 43.8619091,37.9766561 L37.8486234,37.9766561 L37.8486234,33.8425534 L40.3929351,33.8425534 C40.840013,33.8425534 41.3172468,33.5991225 41.3172468,32.9156166 C41.3172468,32.2317589 40.840013,31.9883281 40.3929351,31.9883281 L37.8486234,31.9883281 L37.8486234,27.8542253 L43.8619091,27.8542253 Z" id="Fill-3" fill="#333333"></path>
            <path d="M51.5741688,27.8542253 L51.7954286,27.8542253 C52.5524805,27.8591502 52.690987,27.8535217 53.0405844,28.571502 L54.5020909,31.5566957 L54.5697662,31.6967036 C54.7836623,32.1353715 54.9379481,32.4519723 54.9379481,32.9863241 C54.9379481,33.4221779 54.7994416,33.712747 54.607987,34.11483 L53.0581169,37.2593794 C52.7558571,37.883083 52.5998182,37.9766561 51.8648571,37.9766561 L51.5741688,37.9766561 L51.5741688,27.8542253 Z M48.9243117,37.9766561 C48.4775844,37.9766561 48,38.2204387 48,38.9039447 C48,39.5874506 48.4775844,39.8312332 48.9243117,39.8312332 L51.8473247,39.8312332 C53.3004156,39.8312332 54.0651818,39.3746245 54.6686494,38.1462134 L56.2711169,34.9313083 C56.6322857,34.2066443 56.7862208,33.6195257 56.7862208,32.9683834 C56.7862208,32.1459249 56.607039,31.6266996 56.2535844,30.8995731 L54.7040649,27.7905534 C54.0532597,26.4851028 53.3221558,26 52.0058182,26 L49.0652727,26 C48.3983377,26 48,26.346502 48,26.9269368 C48,27.5337549 48.3867662,27.8542253 49.1182208,27.8542253 L49.7258961,27.8542253 L49.7258961,37.9766561 L48.9243117,37.9766561 Z" id="Fill-5" fill="#333333"></path>
            <path d="M25.7456364,50.5722055 C26.069987,49.921415 26.1797403,49.8545771 26.9213636,49.8545771 L30.3987532,49.8545771 C30.8086623,49.8545771 31.2872987,49.6118498 31.2872987,48.9272885 C31.2872987,48.2437826 30.8282987,48 30.3987532,48 L26.8687662,48 C25.497026,48 24.7255974,48.4826403 24.1175714,49.7201976 L22.4975714,52.9882213 C22.120974,53.7441937 22,54.2254269 22,54.9687352 C22,55.6072134 22.1437662,56.1679486 22.480039,56.8430119 L24.100039,60.1289763 C24.6856234,61.3225613 25.4875584,61.831585 26.7804026,61.831585 L30.3987532,61.831585 C30.8086623,61.831585 31.2872987,61.5885059 31.2872987,60.9042964 C31.2872987,60.2207905 30.8282987,59.9770079 30.3987532,59.9770079 L26.9918442,59.9770079 C26.2032338,59.9770079 26.0517532,59.926 25.7105714,59.2245534 L24.2136494,56.1679486 L24.1926104,56.1257352 C23.9927403,55.7254111 23.8486234,55.4366008 23.8486234,54.9687352 C23.8486234,54.4336798 23.9874805,54.1170791 24.2136494,53.6456957 L25.7456364,50.5722055 Z" id="Fill-7" fill="#333333"></path>
            <path d="M38.0802025,56.9738735 L39.4130207,52.3286364 L40.7286571,56.9738735 L38.0802025,56.9738735 Z M40.3709947,48.9336206 C40.2545791,48.4988221 40.0403324,48 39.4130207,48 C38.799735,48 38.6061766,48.4812332 38.4732804,48.9325652 L35.0214882,60.8919842 C34.9692415,61.0713913 35.0130727,61.267332 35.1442155,61.4432213 C35.3205921,61.678913 35.620748,61.831585 35.9089817,61.831585 C36.5412025,61.831585 36.8024363,61.2581858 36.9016701,60.917664 L37.5608908,58.8280988 L41.2472675,58.8280988 L41.8889558,60.9166087 C41.9885402,61.2581858 42.2494233,61.831585 42.8819947,61.831585 C43.1702285,61.831585 43.4700337,61.678913 43.6464103,61.4432213 C43.7779038,61.267332 43.8213843,61.0713913 43.7691376,60.892336 L40.3709947,48.9336206 Z" id="Fill-9" fill="#333333"></path>
            <path d="M52.9743117,53.9883281 L49.8486234,53.9883281 L49.8486234,49.8542253 L52.9743117,49.8542253 C54.6093896,49.8542253 54.9379481,50.7227668 54.9379481,52.124253 C54.9379481,53.3786957 54.2955584,53.9883281 52.9743117,53.9883281 M52.9743117,59.9766561 L49.8486234,59.9766561 L49.8486234,55.8425534 L52.9743117,55.8425534 C54.6093896,55.8425534 54.9379481,56.7110949 54.9379481,58.1129328 C54.9379481,59.3670237 54.2955584,59.9766561 52.9743117,59.9766561 M56.7862208,52.124253 C56.7862208,49.4648063 55.4323636,48 52.9743117,48 L48,48 L48,61.8312332 L52.9743117,61.8312332 C55.29,61.8312332 56.7862208,60.3717036 56.7862208,58.1129328 C56.7862208,56.7592885 56.6031818,55.8443123 55.6448571,54.9166719 C56.4443377,54.1898972 56.7862208,53.3516087 56.7862208,52.124253" id="Fill-11" fill="#333333"></path>
            <path d="M22.421961,8 C21.4538182,8 20.6687143,8.76902006 20.6687143,9.71809665 C20.6687143,10.6671732 21.4538182,11.4361933 22.421961,11.4361933 L65.2011818,11.4361933 C66.9411039,11.4361933 68.357026,12.8233845 68.357026,14.5287673 L68.357026,76.4376312 C68.357026,78.143014 66.9411039,79.5302052 65.2011818,79.5302052 L44.2646104,79.5302052 C44.1948312,79.5302052 44.1289091,79.5425755 44.0615844,79.5504788 C43.4875714,79.6408506 43.1257013,79.8171274 42.8493896,80.1191688 L38.9315844,84.4422436 L35.6617792,80.8277118 L34.9678442,80.0906483 C34.6964416,79.8023517 34.3471948,79.6322602 33.9811169,79.5693778 C33.8366494,79.5508224 33.7766883,79.5415447 33.716026,79.5401702 C33.6813117,79.5381085 12.6623377,79.5302052 12.6623377,79.5302052 C10.9220649,79.5302052 9.50649351,78.143014 9.50649351,76.4376312 L9.50649351,24.2071494 C9.50649351,23.2580728 8.72138961,22.4890527 7.75324675,22.4890527 C6.78475325,22.4890527 6,23.2580728 6,24.2071494 L6,76.4376312 C6,80.037731 8.98858442,82.9663985 12.6623377,82.9663985 L32.904974,82.9663985 L33.061013,83.132023 L37.1544935,87.6578332 C37.6092857,88.1602047 38.2569351,88.4481577 38.9315844,88.4481577 C39.6069351,88.4481577 40.2545844,88.1598611 40.7086753,87.6574896 L44.7954935,83.1395827 L44.9536364,82.9663985 L65.2011818,82.9663985 C68.8749351,82.9663985 71.8635195,80.037731 71.8635195,76.4376312 L71.8635195,14.5287673 C71.8635195,10.9286676 68.8749351,8 65.2011818,8 L22.421961,8 Z" id="Fill-76" fill="#3253FA"></path>
            <path d="M6.26785714,16.3349802 C6.26785714,17.3065929 7.05296104,18.0938735 8.0211039,18.0938735 C8.98924675,18.0938735 9.77435065,17.3065929 9.77435065,16.3349802 L9.77435065,11.80583 L14.288961,11.80583 C15.2571039,11.80583 16.0422078,11.0185494 16.0422078,10.0469368 C16.0422078,9.07532411 15.2571039,8.28804348 14.288961,8.28804348 L9.77435065,8.28804348 L9.77435065,3.75889328 C9.77435065,2.78728063 8.98924675,2 8.0211039,2 C7.05296104,2 6.26785714,2.78728063 6.26785714,3.75889328 L6.26785714,8.28804348 L1.75324675,8.28804348 C0.785103896,8.28804348 0,9.07532411 0,10.0469368 C0,11.0185494 0.785103896,11.80583 1.75324675,11.80583 L6.26785714,11.80583 L6.26785714,16.3349802 Z" id="Fill-78" fill="#3253FA"></path>
            <text id="Экспертная-медицинск" font-family="Roboto-Regular, Roboto" font-size="12" font-weight="normal" line-spacing="16" fill="#989DB3">
                <tspan x="87" y="16">Экспертная </tspan>
                <tspan x="87" y="32">медицинская</tspan>
                <tspan x="87" y="48">система</tspan>
            </text>
        </g>
    </g>
</svg>