<svg xmlns="http://www.w3.org/2000/svg" width="17" height="19" viewBox="0 0 17 19">
    <path fill="#FFF" fill-rule="nonzero" d="M11.385 2.54a2.54 2.54 0 1 1-5.075-.003 2.54 2.54 0 0 1 5.075.003zM8.848 15.584a1.415 1.415 0 1 0-.003 2.83 1.415 1.415 0 0 0 .003-2.83zM17 9.769a.924.924 0 1 0-1.847 0 .924.924 0 0 0 1.847 0zm-13.769 0a1.616 1.616 0 1 0-3.23 0 1.616 1.616 0 0 0 3.23 0zM14.473 4.14a.725.725 0 0 0-1.028 0 .73.73 0 0 0 0 1.032.724.724 0 0 0 1.028 0 .731.731 0 0 0 0-1.032zm-9.565 9.571a1.667 1.667 0 0 0-2.348 0 1.653 1.653 0 0 0 0 2.341c.649.647 1.7.648 2.347 0a1.65 1.65 0 0 0 0-2.34zm9.727 1.845a.957.957 0 0 0 0-1.349.948.948 0 0 0-1.344.003.957.957 0 0 0 0 1.348.949.949 0 0 0 1.344-.002zM4.95 5.87a1.719 1.719 0 0 0 0-2.427A1.714 1.714 0 1 0 2.526 5.87a1.71 1.71 0 0 0 2.423 0z"/>
</svg>
