<svg xmlns="http://www.w3.org/2000/svg" width="17" height="17" viewBox="0 0 17 17">
    <g fill="#3253FA" fill-rule="evenodd">
        <path d="M15.871 1.44a.605.605 0 0 0-.718.47l-.44 2.075A7.845 7.845 0 0 0 7.93.055C3.593.055.065 3.622.065 8.007c0 .337.271.611.605.611a.608.608 0 0 0 .605-.611c0-3.71 2.985-6.728 6.654-6.728a6.64 6.64 0 0 1 5.755 3.349l-2.016-.437a.612.612 0 0 0-.253 1.196l3.461.75a.597.597 0 0 0 .455-.085.612.612 0 0 0 .263-.385l.742-3.5a.612.612 0 0 0-.465-.726zM15.643 7.205a.609.609 0 0 0-.584.631 6.726 6.726 0 0 1-1.793 4.82 6.58 6.58 0 0 1-4.86 2.13 6.637 6.637 0 0 1-5.658-3.189l2.102.57a.612.612 0 0 0 .313-1.182l-3.42-.927a.6.6 0 0 0-.458.061.61.61 0 0 0-.282.372l-.917 3.457a.612.612 0 0 0 .585.77c.267 0 .511-.18.584-.453l.515-1.943a7.84 7.84 0 0 0 6.898 3.683 7.776 7.776 0 0 0 5.482-2.513 7.949 7.949 0 0 0 2.118-5.696.607.607 0 0 0-.625-.591z"/>
    </g>
</svg>
