<svg xmlns="http://www.w3.org/2000/svg" width="127" height="38" viewBox="0 0 127 38">
    <g fill="none" fill-rule="evenodd">
        <path fill="#FFFFFE" d="M21.135 5.044c-1.508.001-2.639.495-2.884 1.077l2.884 1.138 2.884-1.138c-.244-.582-1.375-1.076-2.884-1.077M21.165 35.172h-.058c-.913.006-2.172-.18-2.777-.358l-.73 1.973c.48.171 2.11.5 3.537.5 1.425 0 3.055-.329 3.535-.5l-.728-1.973c-.608.177-1.866.364-2.78.358M26.683 33.21c-.542.306-1.754.768-2.459.982l.592 1.63c1.09-.298 1.99-.646 2.733-1.019l-1.228-.408.362-1.186M15.589 33.21l.363 1.185-1.23.408c.742.373 1.647.72 2.733 1.019l.593-1.63c-.704-.214-1.917-.676-2.46-.983M21.135 3.157c1.136 0 2.25.272 3.108.75.078-.263.188-.582.336-.916l-.324.039-.34.035-.144-.31-.434-.915-.79.412-.308.156-.245-.242-.86-.85-.857.85-.245.242-.307-.156-.795-.412-.427.916-.147.31-.34-.036-.323-.04c.149.335.257.654.337.916.86-.477 1.973-.749 3.105-.749M38.486 13.74c.148.051.298.074.446.074.644 0 1.265-.416 1.478-.891 0 0-1.178-.072-2.446-1.359-.403-.416-.83-.541-1.197-.541-.57 0-.996.3-.996.3 1.531.815 1.844 2.123 2.715 2.418M3.339 13.814c.149 0 .299-.023.443-.074.874-.294 1.19-1.602 2.719-2.417 0 0-.429-.3-.995-.3-.368 0-.795.125-1.2.542-1.266 1.286-2.444 1.358-2.444 1.358.212.475.834.891 1.477.891"/>
        <path fill="#FFFFFE" d="M38.024 23.13c-1.184-.584-1.933-2.134-2.113-2.692-.197 3.074-1.697 5.207-3.452 7.261-.91 1.065-1.228 2.1-1.228 2.1s.176-1.173.963-2.127c1.637-1.966 3.192-4.415 3.308-7.245.08-1.976-.428-3.578-1.22-4.898.443 1.375.38 3.059-1.126 4.63 0 0 2.998-3.591-1.193-7.274-1.677-1.402-3.513-2.267-4.458-2.88 3.414 1.113 5.08-.113 5.08-.113-1.089.945-2.5.93-3.376.793.238.116.485.237.75.38 2.879 1.563 5.465 4.135 5.906 7.697v-.027c.67 3.498 2.16 4.396 2.16 4.396m.876-4.076c.027.002.05.002.076.002 1.605 0 2.148-1.719 2.148-1.719h-.03c-.296 0-2.68-.069-4.367-2.212-1.11-1.41-2.02-2.648-3.816-3.136l-.177-.031-.038-.18c-.05-.274.139-.532.565-.81 2.48-1.623.795-3.693.795-3.693S33.35 8.93 31.766 8.93l-.118-.002c-.18-.009-.353-.015-.528-.053l-.292-.057s.452-1.228-.638-2.356c-.821-.851-1.82-.996-2.397-.996-.29 0-.475.037-.475.037.547.716.943 1.904.311 2.637-.546.63-1.88.66-1.88 1.599 0 .398.37.862 1.037 1.278 2.006 1.264 3.998 2.94 4.826 5.187 1.035 2.801-.13 4.662-1.795 5.729 0 0 .522.48 1.279.542.154.014.305.021.445.021 1.597 0 2.424-.749 2.424-.749s-.137 1.035-.968 1.996c-.767.887-1.773 1.41-3.31 1.432 0 0-.048.713.632 1.33.436.39 1.44.516 1.44.516s-1.882.381-2.09 3.16c-.112 1.507-.497 2.03-.497 2.03h.033c4.367 0 4.256-3.746 4.256-3.746s.303 1.11 1.522 1.399c.147.038.304.053.454.053.392 0 .733-.092.733-.092s-.639-1.345-.006-3.228c.525-1.562.44-2.72.44-2.72s.588.89 2.048.899h.014c1.215 0 1.744-.92 1.744-.92-2.911-1.21-2.624-5.11-2.624-5.11s.378.282 1.115.308M9.811 27.7c-1.754-2.055-3.254-4.188-3.452-7.262-.181.558-.927 2.108-2.11 2.693 0 0 1.487-.898 2.156-4.396v.027c.443-3.561 3.029-6.134 5.907-7.697.264-.144.513-.264.75-.38-.876.136-2.287.152-3.376-.793 0 0 1.667 1.226 5.08.113-.945.613-2.78 1.478-4.456 2.88-4.193 3.683-1.194 7.275-1.194 7.275-1.508-1.572-1.568-3.256-1.125-4.631-.794 1.32-1.302 2.922-1.22 4.898.114 2.83 1.67 5.278 3.303 7.245.79.954.969 2.127.969 2.127s-.322-1.035-1.232-2.1m.702-.677s1.005-.126 1.441-.517c.68-.616.63-1.329.63-1.329-1.536-.021-2.541-.545-3.313-1.431-.826-.962-.963-1.997-.963-1.997s.826.75 2.421.75c.143 0 .293-.008.447-.022.757-.062 1.28-.542 1.28-.542-1.665-1.067-2.831-2.927-1.798-5.73.829-2.245 2.82-3.922 4.827-5.186.666-.416 1.037-.88 1.037-1.278 0-.939-1.333-.97-1.879-1.599-.632-.733-.236-1.921.31-2.637 0 0-.182-.037-.474-.037-.576 0-1.575.145-2.396.996-1.092 1.128-.64 2.356-.64 2.356l-.291.057c-.174.037-.35.044-.529.054l-.115.001c-1.589 0-2.292-1.655-2.292-1.655s-1.684 2.07.795 3.694c.426.277.614.535.564.809l-.038.18-.18.031c-1.794.488-2.705 1.727-3.815 3.136-1.686 2.143-4.068 2.212-4.365 2.212h-.032s.544 1.719 2.15 1.719c.024 0 .048 0 .075-.002.738-.026 1.116-.309 1.116-.309s.286 3.901-2.624 5.11c0 0 .53.921 1.744.921h.015c1.46-.008 2.047-.898 2.047-.898s-.085 1.158.438 2.72c.633 1.882-.002 3.227-.002 3.227s.34.092.731.092c.152 0 .308-.015.454-.053 1.216-.29 1.521-1.399 1.521-1.399s-.111 3.746 4.256 3.746h.032s-.382-.523-.495-2.03c-.207-2.779-2.09-3.16-2.09-3.16M20.15 13.22h2.058v.706c-.242-.296-.713-.236-.713-.236v1.019s.017.5.193.717H20.67c.179-.216.194-.717.194-.717V13.69s-.47-.06-.714.236v-.706zm-2.244.106c.072.077.142.16.21.244.016.02.031.037.047.06a6.4 6.4 0 0 1 .187.262c.014.018.027.04.041.06.073.11.143.225.211.343.63 1.087 1.638 1.737 2.533 1.739.895-.002 1.902-.652 2.534-1.74.07-.12.14-.237.213-.347l.033-.048a4.973 4.973 0 0 1 .236-.325c.07-.088.143-.172.217-.25.013-.013.023-.025.035-.035a2.608 2.608 0 0 1 1.205-.718l-.224-.13h-.012l-.887-.515-.91-.521-2.434 1.325-.006-.006-.005.006-2.434-1.325-.91.521-.888.515h-.01l-.225.13c.5.139.882.386 1.204.715.014.013.024.028.039.04z"/>
        <path fill="#FFFFFE" d="M20.36 8.73v.665l-.128-.058c-.006-.005-.194-.047-.52-.306-.539-.418-.55-.804-.55-.804l1.197.503zm.564 3.12V7.714l-2.632-.893.694 4.008 1.938 1.02zM21.912 8.73l1.198-.503s-.01.386-.552.804c-.325.259-.513.3-.52.306l-.126.058V8.73zm1.373 2.099l.692-4.008-2.631.893v4.136l1.939-1.021zM17.202 21.437c.255.093.567.112.726.112.006-.02.015-.044.022-.073.014-.047.028-.094.038-.146.044-.229.06-.488.064-.655a.922.922 0 0 1-.346-.365c-.097-.206-.237-.302-.44-.302-.265 0-.55.16-.672.234-.097.572.325 1.09.608 1.195M23.024 19.243c-.488.532-1.446 1.458-1.492 1.503l-.058.059-3.024-.048c-.002.3-.05.554-.098.741l-.024.096 3.597.647a148.62 148.62 0 0 0 1.804-1.309c-.29-.424-.318-.928-.253-1.283a1.8 1.8 0 0 1-.452-.406"/>
        <path fill="#FFFFFE" d="M23.434 15.606c-.697.69-1.365.948-1.962 1.006-.109.012-.218.019-.329.019h-.015a3.14 3.14 0 0 1-.653-.07c-.039.156-.089.48.053.79.127.278.383.486.758.625l.126.049.002.136c0 .04.03.92.988 1.164.157-.161.3-.307.404-.43-.195-.46-.092-.931.192-1.161-.013.048-.137 1.203.788 1.632l.152.072-.045.163c-.015.048-.324 1.166.797 1.582l.199.075-.088.192c-.02.043-.46 1.056.576 1.633h2.244V21.3c-.798-.098-1.136-.74-1.223-1.193-.372-.064-.658-.224-.855-.485-.471-.62-.066-1.188-.06-1.22-.002.006 0 .61.372.983.186.18.404.32.735.351l.164.015.014.167c.002.035.092.854.853.982l-.002-3.64c0-.564.165-1.131.363-1.655h-4.548M17.393 17.274l-.061 2.318.264.04.644-2.224-.327-.684-.52.55M18.789 25.856a.13.13 0 0 1-.126-.141.131.131 0 0 1 .141-.123c.076.003.129.07.127.14a.134.134 0 0 1-.142.124m5.707 2.052c.02 0 .042.002.064.008.401.114.502 1.56 1.205 1.688.07.014.133.019.189.019.203 0 .324-.087.455-.241 0 0-.354-.556-.618-.932-.352-.49-.625-1.084-1.28-1.084-.015 0-.034 0-.05.003-.215.01-.348.116-.348.116a1.353 1.353 0 0 0-.735-.223c-.41 0-.729.188-.889.188h-.006l-1.461-.145c-.228-.022-.41-.252-.474-.342a44.19 44.19 0 0 0-.026-.039c0-.04 0-.08-.002-.116-.05-1.196-.975-1.707-1.304-1.715 0 0 .039-.228-.05-.314l-.323.391-1.057-.53.755.881-.64.717c-.08.082-.07.192-.036.24l.276.243.35-.212c.017-.013.05-.018.088-.018.097 0 .242.026.372.026.144 0 .266-.03.281-.165-.043.444-.455 1.213-.185 1.819l.2.457-1.292-.186-.605 1.02c-.186.34-.215.708-.036.909l.226.283s.318-.337.389-.558l-.103-.113c-.087-.095-.082-.18-.03-.282l.38-.63 1.525.36.08-.137c.104-.173.254-.224.417-.224.067 0 .136.008.208.02.283.055.75.13 1.215.13.51 0 1.018-.09 1.29-.394.552.819 1.671.95 1.583 1.365l-.295 1.404a6.04 6.04 0 0 0 .562-.046l.28-1.46c.03-.16.06-.373.06-.373-.107-.11-.37-.34-.517-.622-.197-.38-.09-.578-.274-1.072 0 0 .057-.114.186-.114"/>
        <path fill="#FFFFFE" d="M16.706 29.235s.506-.208.55-.356l-.067-.169c-.048-.11-.041-.229.052-.293l.545-.378.911.176s-.165-.207-.148-.483l-.87-.184-.821.5a.796.796 0 0 0-.261.948l.109.24M23.155 31.613c.163-.007.344-.01.541-.01 0 0 .47-1.372.496-1.415-.263-.116-.81-.406-1.02-.538.14.208.478.446.41.63l-.427 1.333"/>
        <path fill="#FFE52B" d="M27.621 23.476l.003 4.878c0 1.617-.95 2.747-2.446 3.114l.25-1.305c.014-.077.03-.167.04-.242.072.03.147.054.228.07.093.017.18.026.258.026.382 0 .605-.202.754-.373l.192-.225-.157-.245a25.44 25.44 0 0 0-.629-.95 5.187 5.187 0 0 1-.155-.227c-.304-.455-.684-1.026-1.447-1.026l-.069.002a1.11 1.11 0 0 0-.321.066 1.739 1.739 0 0 0-.745-.17c-.315 0-.58.087-.759.147-.05.015-.095.031-.132.037l-1.425-.14c-.019-.003-.077-.038-.148-.122v-.007l.309-.123c-.087-1.03-1.074-1.662-1.625-1.876a.582.582 0 0 0-.16-.289l-.307-.291-.269.323-.133.164-1.998-.82 1.3 1.632-.513.777c-.188.2.02.399.02.399l.53.366.549-.205c.019 0 .035.004.054.006-.027.083-.061.41-.084.502l-.954-.187-1.001.566a1.186 1.186 0 0 0-.394 1.431l.11.244.158.343.351-.145c.006-.001.01-.003.013-.005-.126.402-.074.785.15 1.035l.212.267.284.359.31-.334c.092-.092.389-.424.48-.708l.067-.217-.15-.167-.026-.03.17-.282 1.245.293.28.065.149-.246.081-.134c.015-.028.019-.033.077-.033.044 0 .088.005.135.015.47.089.903.133 1.288.133.373 0 .596-.014.86-.102 0 0 .67.759.692.787l-.409 1.264-.018.076c-.775.063-1.152.233-1.609.688-.662-.657-1.132-.727-2.911-.727-2.13 0-3.575-1.248-3.575-3.244v-4.878h12.97zm-12.97-.393V17.26c0-.564-.165-1.131-.36-1.655h4.546c.433.43.855.697 1.258.844-.052.207-.12.635.073 1.061.159.345.446.61.86.786a1.627 1.627 0 0 0 1.058 1.347c-.326.328-.642.639-.77.763l-3.018-.048a.54.54 0 0 1-.237-.22c-.006-.015-.016-.023-.022-.038l.492.079.032.001a.194.194 0 0 0 .194-.163.198.198 0 0 0-.163-.226l-.606-.095.671-2.322-.636-1.34-1.02 1.08-.062 2.412-.686-.108a.196.196 0 0 0-.225.164.199.199 0 0 0 .163.225l.288.044c-.103.058-.171.105-.18.111l-.057.042-.016.071c-.167.678.21 1.32.617 1.608l-.014.085a.385.385 0 0 0 .069.291.38.38 0 0 0 .317.163c.176 0 .33-.122.373-.301.152.018.291.022.386.022h.08l3.96.715.067-.045c.314-.22 1.518-1.096 1.912-1.386.108.093.229.177.376.247-.128.428-.136 1.087.368 1.608H14.65z"/>
        <path fill="#1A1919" d="M18.804 25.592a.131.131 0 0 0-.14.123.13.13 0 0 0 .125.14.134.134 0 0 0 .142-.123.134.134 0 0 0-.127-.14M24.816 35.822l-.592-1.63c.705-.214 1.917-.676 2.46-.983l-.362 1.186 1.227.408c-.743.373-1.643.72-2.733 1.02m-3.678 1.464c-1.428 0-3.057-.329-3.538-.5l.73-1.973c.605.177 1.864.364 2.777.358h.058c.913.006 2.17-.181 2.779-.358l.728 1.974c-.48.17-2.11.499-3.534.499m-6.415-2.484l1.23-.408-.364-1.186c.542.307 1.756.769 2.46.983l-.594 1.63c-1.086-.299-1.99-.646-2.732-1.019m12.88-.362l-.746-.286.206-.773.227-.84s-1.324.717-3.19 1.256c-.529.152-.93.221-.93.221v.573s-.997.173-2.005.173h-.058c-1.01 0-2.005-.173-2.005-.173v-.573s-.402-.07-.93-.22c-1.866-.54-3.189-1.258-3.189-1.258l.224.841.21.773-.749.286-.831.31c.952.46 2.273 1.13 3.48 1.46l-.284.78s1.532.698 4.085.704v.002h.035v-.002c2.556-.006 4.087-.704 4.087-.704l-.286-.78c1.208-.33 2.53-1 3.479-1.46l-.83-.31M18.016 3.03l.34.035.147-.31.427-.914.795.41.307.158 1.103-1.093.859.85.245.243.309-.158.79-.41.433.915.144.31.34-.036.324-.04a7.653 7.653 0 0 0-.336.917c-.858-.478-1.972-.75-3.108-.75-1.132 0-2.245.272-3.105.75a7.846 7.846 0 0 0-.337-.916l.323.039zm3.119.605c1.52 0 2.737.504 3.41 1.04 0 0 .2-1.201.88-2.262l-1.224.14-.641-1.362-1.23.634-1.195-1.18-1.191 1.18-1.234-.634-.64 1.361-1.225-.139c.683 1.06.881 2.263.881 2.263.677-.537 1.89-1.041 3.409-1.041zM40.41 23.856s-.528.921-1.744.921h-.015c-1.458-.008-2.046-.898-2.046-.898s.084 1.157-.44 2.72c-.634 1.882.005 3.227.005 3.227s-.341.092-.733.092c-.15 0-.307-.015-.454-.053-1.219-.29-1.522-1.399-1.522-1.399s.111 3.746-4.256 3.746h-.034s.385-.523.499-2.03c.207-2.779 2.089-3.16 2.089-3.16s-1.004-.126-1.44-.516c-.68-.617-.632-1.33-.632-1.33 1.536-.021 2.543-.545 3.31-1.432.831-.96.968-1.996.968-1.996s-.827.75-2.424.75c-.14 0-.29-.008-.445-.022-.756-.062-1.278-.542-1.278-.542 1.663-1.067 2.83-2.928 1.795-5.73-.83-2.245-2.82-3.922-4.826-5.186-.667-.416-1.039-.88-1.039-1.279 0-.938 1.335-.968 1.881-1.598.632-.733.236-1.921-.311-2.637 0 0 .184-.037.475-.037.577 0 1.576.145 2.397.996 1.09 1.128.638 2.356.638 2.356l.291.057c.175.037.35.044.53.053l.117.002c1.584 0 2.292-1.655 2.292-1.655s1.683 2.07-.796 3.694c-.426.277-.614.535-.565.809l.039.18.176.031c1.797.487 2.706 1.727 3.816 3.136 1.687 2.143 4.071 2.212 4.366 2.212h.031s-.543 1.719-2.148 1.719c-.027 0-.05 0-.076-.002-.737-.026-1.115-.309-1.115-.309s-.287 3.901 2.625 5.11m-1.434-4.273c1.967 0 2.625-2 2.652-2.087l.22-.705-.737.023h-.003c-.26 0-2.43-.058-3.968-2.013l-.146-.182c-1.005-1.277-1.958-2.494-3.663-3.048.05-.045.12-.1.217-.162.905-.595 1.43-1.318 1.562-2.157.194-1.261-.612-2.268-.647-2.309l-.547-.677-.342.803c-.024.05-.598 1.336-1.81 1.336h-.09c-.082-.004-.161-.007-.239-.014.042-.573-.062-1.46-.867-2.294-.968-1.002-2.155-1.153-2.776-1.153-.332 0-.552.041-.577.044l-.826.164.51.672c.4.519.763 1.475.332 1.975-.137.16-.42.288-.69.418-.558.255-1.319.614-1.319 1.522 0 .589.457 1.204 1.285 1.727 2.448 1.54 3.959 3.148 4.611 4.922 1.01 2.728-.307 4.284-1.586 5.105l-.574.369.503.461c.067.06.68.6 1.589.679.172.011.336.02.49.02.581 0 1.077-.091 1.48-.214-.11.194-.248.392-.419.59-.73.848-1.63 1.233-2.924 1.254l-.48.008-.037.482c-.005.097-.04.992.805 1.752.13.117.286.214.45.293-.574.517-1.157 1.417-1.27 2.958-.095 1.286-.402 1.763-.405 1.767l-.531.811.96.013c1.586 0 2.8-.437 3.642-1.305a4.122 4.122 0 0 0 .95-1.605 2.58 2.58 0 0 0 1.675.615c.448 0 .823-.095.865-.105l.613-.163-.271-.572c-.02-.046-.532-1.195.019-2.832a9.32 9.32 0 0 0 .416-1.837c.386.202.904.367 1.572.37 1.517 0 2.186-1.134 2.216-1.181l.299-.521-.554-.228c-1.808-.75-2.209-2.767-2.289-3.858.163.031.35.06.561.066l.093.003"/>
        <path fill="#1A1919" d="M36.767 11.023c.367 0 .794.125 1.197.542 1.268 1.286 2.447 1.358 2.447 1.358-.214.475-.835.891-1.479.891a1.35 1.35 0 0 1-.446-.074c-.872-.294-1.184-1.602-2.715-2.417 0 0 .427-.3.996-.3m-1.246.765c.734.39 1.161.915 1.536 1.379.368.454.717.89 1.265 1.07.194.067.4.1.61.1.82 0 1.645-.503 1.958-1.199l.314-.696-.76-.046c-.036 0-1.015-.09-2.103-1.202-.449-.457-.99-.696-1.574-.696-.713 0-1.242.356-1.3.393l-.699.492.753.405M35.865 18.735v.027c-.44-3.562-3.027-6.134-5.906-7.698a20.59 20.59 0 0 0-.75-.38c.876.137 2.287.153 3.377-.792 0 0-1.667 1.226-5.08.113.944.613 2.78 1.478 4.457 2.88 4.19 3.683 1.193 7.274 1.193 7.274 1.506-1.571 1.568-3.255 1.125-4.63.793 1.32 1.3 2.922 1.221 4.898-.115 2.83-1.671 5.278-3.308 7.245-.786.954-.962 2.127-.962 2.127s.317-1.035 1.227-2.1c1.755-2.054 3.255-4.187 3.452-7.261.18.558.928 2.108 2.114 2.693 0 0-1.49-.898-2.16-4.396M13.066 32.212c-4.367 0-4.256-3.746-4.256-3.746s-.305 1.11-1.521 1.399a1.798 1.798 0 0 1-.454.053c-.392 0-.731-.092-.731-.092s.635-1.345.002-3.228c-.523-1.561-.438-2.72-.438-2.72s-.587.89-2.047.9h-.015c-1.214 0-1.744-.922-1.744-.922 2.91-1.209 2.624-5.11 2.624-5.11s-.378.283-1.116.31h-.076c-1.605 0-2.15-1.718-2.15-1.718h.033c.297 0 2.68-.07 4.365-2.212 1.11-1.41 2.02-2.648 3.815-3.136l.18-.032.038-.18c.05-.273-.138-.531-.564-.808-2.479-1.624-.795-3.694-.795-3.694s.703 1.655 2.292 1.655l.115-.001c.179-.01.355-.017.529-.054l.292-.057s-.454-1.228.64-2.356c.82-.851 1.818-.996 2.395-.996.292 0 .474.037.474.037-.546.716-.942 1.904-.31 2.637.546.63 1.88.66 1.88 1.598 0 .399-.372.863-1.038 1.279-2.007 1.264-3.998 2.94-4.827 5.187-1.033 2.802.133 4.662 1.799 5.73 0 0-.524.48-1.281.54a4.74 4.74 0 0 1-.447.022c-1.595 0-2.421-.749-2.421-.749s.137 1.035.963 1.997c.772.886 1.777 1.41 3.314 1.431 0 0 .049.713-.63 1.33-.437.39-1.442.516-1.442.516s1.883.381 2.09 3.16c.113 1.507.495 2.03.495 2.03h-.032zm.465-.3c-.002-.004-.307-.48-.405-1.767-.114-1.542-.696-2.441-1.272-2.958.167-.079.32-.176.45-.293.846-.76.81-1.655.804-1.752l-.032-.482-.485-.008c-1.29-.02-2.19-.406-2.921-1.253a3.926 3.926 0 0 1-.419-.59c.403.122.895.213 1.478.213.156 0 .32-.009.491-.02a2.894 2.894 0 0 0 1.59-.679l.504-.461-.574-.369c-1.284-.82-2.596-2.377-1.588-5.105.653-1.774 2.162-3.382 4.614-4.922.828-.523 1.28-1.138 1.28-1.727 0-.908-.758-1.267-1.315-1.522-.272-.13-.554-.259-.692-.418-.43-.5-.068-1.456.333-1.975l.513-.672-.83-.164c-.025-.003-.243-.044-.576-.044-.62 0-1.805.15-2.773 1.153-.807.834-.912 1.72-.87 2.294-.079.007-.157.01-.24.014h-.088c-1.214 0-1.788-1.286-1.81-1.336l-.341-.803-.553.677c-.031.041-.839 1.048-.642 2.31.13.838.657 1.561 1.562 2.156.098.063.167.117.216.162-1.707.554-2.659 1.77-3.664 3.048l-.145.182c-1.536 1.955-3.712 2.013-3.972 2.013l-.74-.023.225.705c.026.086.682 2.087 2.65 2.087l.095-.003c.208-.006.395-.035.56-.066-.08 1.09-.482 3.107-2.29 3.858l-.553.228.299.52c.029.048.7 1.182 2.22 1.182a3.38 3.38 0 0 0 1.567-.369c.059.493.18 1.128.418 1.836.55 1.637.038 2.786.018 2.832l-.272.572.614.163c.04.01.419.105.865.105a2.568 2.568 0 0 0 1.675-.615c.167.513.453 1.092.949 1.605.844.868 2.057 1.305 3.643 1.305l.96-.013-.531-.81z"/>
        <path fill="#1A1919" d="M4.306 11.564c.405-.416.832-.542 1.2-.542.566 0 .995.301.995.301-1.53.815-1.845 2.123-2.719 2.418a1.317 1.317 0 0 1-.443.073c-.643 0-1.265-.416-1.477-.89 0 0 1.178-.073 2.444-1.36m-.967 2.772c.21 0 .417-.031.611-.098.549-.182.898-.617 1.266-1.071.376-.464.8-.988 1.533-1.379l.755-.405-.7-.493c-.06-.036-.585-.392-1.298-.392-.584 0-1.127.24-1.575.696-1.09 1.112-2.066 1.202-2.1 1.203l-.76.045.311.697c.314.695 1.137 1.197 1.957 1.197M6.77 20.427c-.08-1.976.427-3.578 1.22-4.898-.442 1.375-.382 3.059 1.126 4.631 0 0-2.999-3.592 1.194-7.275 1.676-1.402 3.511-2.267 4.455-2.88-3.412 1.113-5.079-.113-5.079-.113 1.09.945 2.501.93 3.376.793-.237.116-.485.236-.75.38-2.879 1.563-5.464 4.135-5.907 7.697v-.027c-.669 3.498-2.157 4.396-2.157 4.396 1.184-.585 1.93-2.135 2.111-2.693.198 3.074 1.698 5.207 3.452 7.261.91 1.065 1.231 2.1 1.231 2.1s-.178-1.173-.968-2.127c-1.634-1.966-3.189-4.415-3.303-7.245M20.15 13.22v.706c.244-.296.713-.236.713-.236v1.019s-.015.5-.194.717h1.02c-.177-.216-.194-.717-.194-.717V13.69s.47-.06.713.236v-.706H20.15M19.712 9.03c.326.26.514.302.52.306l.127.06V8.73l-1.197-.503s.01.385.55.804M22.558 9.03c.541-.418.552-.803.552-.803l-1.198.503v.665l.127-.059c.006-.004.194-.047.52-.305"/>
        <path fill="#1A1919" d="M21.135 7.26L18.25 6.12c.245-.58 1.376-1.075 2.884-1.076 1.51.001 2.64.495 2.884 1.076l-2.884 1.14zm2.15 3.569l-1.939 1.021V7.714l2.63-.893-.691 4.008zm1.2 1.097l.887.515h.012l.223.13a2.61 2.61 0 0 0-1.204.718c-.012.01-.022.022-.035.034a4.316 4.316 0 0 0-.217.25l-.04.053a4.447 4.447 0 0 0-.196.273l-.033.048c-.073.11-.144.227-.213.348-.632 1.087-1.639 1.737-2.534 1.739-.895-.002-1.903-.652-2.533-1.74a7.328 7.328 0 0 0-.21-.342c-.015-.02-.028-.042-.042-.06a6.968 6.968 0 0 0-.187-.262 4.96 4.96 0 0 0-.257-.304c-.015-.012-.025-.027-.038-.04a2.61 2.61 0 0 0-1.205-.715l.225-.13h.01l.888-.515.91-.521 2.434 1.325.005-.006.007.006 2.433-1.325.91.521zm3.497 3.68c-.198.524-.363 1.09-.363 1.655l.002 3.64c-.76-.128-.85-.947-.853-.983l-.014-.166-.164-.015a1.16 1.16 0 0 1-.735-.35c-.373-.373-.373-.978-.373-.983-.005.03-.41.598.06 1.218.198.261.485.422.856.486.087.454.425 1.095 1.223 1.193v1.782h-2.244c-1.035-.577-.596-1.59-.576-1.633l.087-.192-.198-.075c-1.12-.416-.812-1.534-.797-1.582l.045-.163-.153-.072c-.924-.43-.8-1.584-.787-1.633-.285.231-.387.702-.192 1.163-.105.122-.248.268-.404.43a1.257 1.257 0 0 1-.988-1.166l-.002-.136-.126-.048c-.374-.139-.63-.347-.758-.626-.142-.309-.092-.633-.053-.789a3.315 3.315 0 0 0 .653.07h.015c.111 0 .22-.008.329-.019.597-.059 1.265-.315 1.962-1.006h4.548zm-2.804 15.863l.25-1.306c.014-.077.03-.167.04-.242.072.03.146.054.227.069.094.018.18.027.259.027.382 0 .605-.201.754-.373l.191-.224-.156-.246a23.883 23.883 0 0 0-.63-.95 5.196 5.196 0 0 1-.153-.227c-.304-.455-.685-1.026-1.449-1.026l-.068.002a1.12 1.12 0 0 0-.32.066 1.744 1.744 0 0 0-.746-.17c-.316 0-.58.087-.758.147-.05.014-.096.03-.132.038l-1.427-.141c-.018-.004-.076-.038-.147-.122v-.007l.309-.123c-.087-1.03-1.075-1.662-1.625-1.876a.58.58 0 0 0-.16-.29l-.307-.29-.27.323-.132.164-1.998-.82 1.3 1.632-.513.777c-.188.199.02.4.02.4l.53.364.549-.204c.019 0 .035.004.054.006-.027.083-.061.41-.084.502l-.954-.187-1.001.566a1.185 1.185 0 0 0-.394 1.432l.11.243.158.343.351-.145a.041.041 0 0 0 .013-.006c-.126.403-.074.786.15 1.036l.213.268.283.358.31-.334c.092-.091.39-.424.48-.708l.067-.217-.15-.167-.026-.03.17-.282 1.245.293.28.065.149-.246.081-.134c.016-.028.019-.033.077-.033a.6.6 0 0 1 .136.015c.47.09.902.133 1.287.133.373 0 .596-.014.861-.102 0 0 .668.759.692.788l-.41 1.263-.018.076c-.775.062-1.152.233-1.609.688-.662-.657-1.131-.726-2.911-.726-2.13 0-3.575-1.25-3.575-3.245v-4.878h12.97l.003 4.878c0 1.617-.95 2.747-2.446 3.115zm-7.989-2.759l.068.169c-.045.147-.551.356-.551.356l-.11-.24a.796.796 0 0 1 .262-.948l.82-.5.87.185a.773.773 0 0 0 .15.483l-.912-.176-.545.377c-.093.065-.1.184-.052.294zm7.852 1.38l-.28 1.458a5.58 5.58 0 0 1-.562.046l.295-1.402c.088-.417-1.031-.547-1.584-1.366-.27.303-.778.394-1.29.394-.465 0-.93-.074-1.214-.13a1.338 1.338 0 0 0-.208-.02c-.163 0-.313.051-.416.224l-.08.137-1.526-.36-.38.629c-.052.102-.057.188.03.283l.103.112c-.071.222-.388.559-.388.559l-.227-.284c-.18-.2-.15-.568.037-.908l.605-1.02 1.292.186-.201-.458c-.27-.605.142-1.374.185-1.818-.015.134-.138.165-.28.165-.13 0-.276-.025-.373-.025-.038 0-.07.004-.088.017l-.35.212-.276-.244c-.034-.047-.044-.157.037-.24l.639-.716-.755-.882 1.057.531.323-.391c.089.087.05.314.05.314.33.008 1.255.52 1.304 1.714.003.037.003.077.003.117 0 0 .008.015.025.04.064.09.246.32.474.34l1.461.146h.006c.16 0 .48-.188.888-.188.224 0 .471.056.735.223 0 0 .134-.106.35-.116.015-.003.034-.003.05-.003.654 0 .927.593 1.279 1.085.264.375.618.93.618.93-.13.155-.252.242-.455.242a.939.939 0 0 1-.189-.019c-.703-.13-.804-1.574-1.205-1.688a.24.24 0 0 0-.064-.008c-.129 0-.185.114-.185.114.183.493.075.692.273 1.072.147.281.41.512.517.622 0 0-.03.214-.06.373zm-1.345 1.514c-.197 0-.378.002-.54.009l.427-1.333c.067-.185-.271-.422-.411-.63.21.132.757.422 1.02.538a70.12 70.12 0 0 0-.496 1.416zm-6.364-12.012l.061-2.317.52-.55.326.683-.643 2.224-.264-.04zm.374.718a.917.917 0 0 0 .345.365 4.25 4.25 0 0 1-.063.655 1.78 1.78 0 0 1-.038.146c-.007.03-.016.054-.022.073-.16 0-.47-.02-.726-.112-.283-.105-.705-.623-.607-1.195.122-.074.405-.234.67-.234.204 0 .344.096.44.302zm6.023.622c-.4.295-1.43 1.047-1.804 1.309l-3.597-.647.024-.096c.047-.187.096-.441.098-.741l3.024.048.058-.059c.046-.045 1.004-.97 1.492-1.503.116.146.26.285.452.406-.065.355-.038.859.253 1.283zm-4.892-5.326c.433.43.856.697 1.258.844-.052.207-.12.635.073 1.062.158.344.446.609.86.785a1.627 1.627 0 0 0 1.058 1.347 67.28 67.28 0 0 1-.77.763l-3.018-.048a.54.54 0 0 1-.237-.22c-.006-.015-.016-.023-.022-.038l.492.079c.01.002.021.002.032.002a.194.194 0 0 0 .193-.164.197.197 0 0 0-.162-.226l-.606-.096.671-2.32-.636-1.34-1.02 1.078-.062 2.414-.686-.11c-.106-.02-.207.057-.226.165a.2.2 0 0 0 .164.226l.288.043c-.103.059-.171.105-.18.112l-.057.04-.016.072c-.167.678.21 1.32.617 1.608l-.014.085a.38.38 0 0 0 .07.291.379.379 0 0 0 .315.163c.177 0 .331-.122.374-.3.152.017.29.02.386.02h.08l3.96.716.067-.044c.315-.22 1.518-1.097 1.912-1.387.108.093.23.177.376.248-.128.427-.136 1.086.368 1.607H14.651V17.26c0-.564-.165-1.131-.36-1.655h4.546zm-.545-8.785l2.632.893v4.136l-1.938-1.021-.694-4.008zm6.423-.499c0-1.009-1.7-1.917-3.574-1.917h-.01c-1.876 0-3.575.908-3.575 1.917l.038.248.748 4.298-.752.437-1.946 1.136h.007s-.437.225-.64.363c-.741.515-.899 1.266-.468 1.576.106-.612.59-1.252 1.496-1.252.652 0 1.15.337 1.551.842.104.127.202.264.293.41.113.185.226.347.338.503H13.21c.368.74.719 1.525.719 2.378v11.093c0 2.685 2.064 3.967 4.298 3.967 1.726 0 1.959-.079 2.911.87.948-.949 1.181-.87 2.909-.87 2.235 0 4.297-1.282 4.297-3.967V17.261c0-.853.35-1.637.72-2.378H24.05c.112-.156.225-.318.337-.503.093-.146.19-.283.292-.41.405-.507.901-.842 1.554-.842.906 0 1.39.64 1.497 1.252.43-.31.274-1.061-.471-1.576a7.833 7.833 0 0 0-.638-.363h.007l-1.949-1.136-.749-.437.75-4.298.036-.248zM60.513 15.402c-.143.227-.3.46-.468.692-.42.609-.836 1.227-1.25 1.853a51.305 51.305 0 0 1-1.267 1.834H55.23v-8.583h2.297v5.23h.09c.143-.233.288-.456.432-.668.143-.209.287-.424.432-.648l2.572-3.914h2.296v8.583h-2.296v-5.056h-.091c-.157.224-.305.449-.45.677zm7.3.816v3.563h-2.297v-8.584h2.297v3.266h3.416v-3.266h2.297v8.584h-2.297v-3.563h-3.416zm15.196.809c0 .958-.296 1.656-.89 2.096-.591.437-1.383.658-2.373.658h-4.052v-8.584h2.296v3.054h1.655c1.025 0 1.84.244 2.451.728.607.487.913 1.168.913 2.048zm-2.637.788c.226-.164.34-.433.34-.807 0-.35-.114-.614-.34-.79-.228-.175-.534-.264-.917-.264H77.99v2.107h1.483c.37 0 .67-.082.899-.246zm32.182.841a4.413 4.413 0 0 1-1.43.915 5.587 5.587 0 0 1-1.783.385v2.827l-2.173.827v-3.637a6.096 6.096 0 0 1-1.872-.376 4.235 4.235 0 0 1-1.445-.914 3.981 3.981 0 0 1-.931-1.403c-.217-.545-.325-1.162-.325-1.854 0-.63.116-1.207.351-1.727.236-.52.558-.973.966-1.35.41-.38.897-.685 1.457-.914a5.577 5.577 0 0 1 1.799-.396V8.637l2.156-.826v3.228c.647.037 1.25.162 1.809.378a4.378 4.378 0 0 1 1.44.895c.402.381.718.833.946 1.36.228.526.343 1.112.343 1.754 0 .692-.12 1.306-.352 1.845a4.212 4.212 0 0 1-.956 1.385zm-2.344-.595c.282-.129.53-.31.745-.544.216-.235.39-.52.52-.86.133-.339.2-.73.2-1.177 0-.748-.205-1.377-.612-1.887-.407-.509-.987-.792-1.74-.851v5.547c.31-.024.606-.099.887-.228zm-3.042.21v-5.53c-.759.06-1.346.343-1.762.852-.416.51-.624 1.14-.624 1.887 0 .446.063.835.19 1.167.127.334.298.617.515.85.216.237.47.417.76.547.289.128.596.203.92.228zm18.816-1c-.234.54-.552 1-.955 1.386-.403.386-.88.692-1.432.914a5.61 5.61 0 0 1-1.782.386v2.827l-2.172.825v-3.636a6.063 6.063 0 0 1-1.871-.376 4.226 4.226 0 0 1-1.447-.914 3.966 3.966 0 0 1-.93-1.404c-.22-.544-.326-1.16-.326-1.853 0-.63.117-1.206.352-1.727.235-.52.557-.972.967-1.35.41-.381.895-.685 1.455-.914a5.555 5.555 0 0 1 1.8-.395V8.637l2.153-.826v3.229c.648.036 1.252.16 1.81.377a4.384 4.384 0 0 1 1.441.895c.403.38.718.834.946 1.36.228.526.342 1.112.342 1.754 0 .692-.117 1.306-.35 1.845zm-2.035-.614c.133-.34.197-.731.197-1.176 0-.75-.203-1.378-.61-1.889-.407-.508-.987-.791-1.74-.85v5.547a2.58 2.58 0 0 0 .889-.228c.28-.129.53-.31.744-.544.215-.235.388-.52.52-.86zm-4.306 1.615v-5.53c-.76.059-1.347.342-1.764.85-.415.51-.623 1.14-.623 1.889 0 .445.063.833.19 1.166.126.334.297.618.516.851.216.236.47.416.758.546.29.128.597.203.923.228zM45.927 9.548v-2h8.962v2h-3.232V19.79H49.27V9.548h-3.343zm46.638 1.695l-3.362 3.949 3.38 4.598h-2.709l-3.004-4.179v4.18h-2.278v-8.594h2.278v3.693l3.076-3.647h2.619zm7.658 1c.367.387.653.854.856 1.404a5.24 5.24 0 0 1 .309 1.842c0 .702-.106 1.333-.318 1.888a4.088 4.088 0 0 1-.873 1.413 3.762 3.762 0 0 1-1.335.886 4.588 4.588 0 0 1-1.697.307c-.638 0-1.211-.105-1.722-.314a3.716 3.716 0 0 1-1.309-.897 4.007 4.007 0 0 1-.84-1.404 5.415 5.415 0 0 1-.297-1.842c0-.704.103-1.333.307-1.888a3.928 3.928 0 0 1 .865-1.405 3.83 3.83 0 0 1 1.336-.877 4.563 4.563 0 0 1 1.696-.308 4.56 4.56 0 0 1 1.696.308c.517.205.96.5 1.326.886zm-1.26 4.3a3.91 3.91 0 0 0 .127-1.017c0-.784-.162-1.42-.49-1.905-.328-.485-.812-.73-1.455-.73-.604 0-1.063.247-1.38.739-.313.49-.473 1.112-.473 1.86 0 .843.164 1.496.491 1.958.328.46.8.693 1.418.693a1.6 1.6 0 0 0 .808-.203c.236-.134.433-.321.592-.56a2.86 2.86 0 0 0 .362-.835zm-46.307 11.39c.847 0 1.512.201 1.995.603.483.402.724 1.01.724 1.821 0 .787-.235 1.39-.705 1.809-.47.419-1.129.629-1.975.629H49.27v-8.35h5.323v.884h-4.387v2.604h2.45zm1.77 2.418c0-.494-.152-.88-.455-1.156-.304-.277-.725-.415-1.263-.415h-2.502v3.13h2.502c.547 0 .97-.132 1.27-.396.299-.264.448-.652.448-1.163zm4.618-3.932c.726 0 1.284.17 1.673.507.39.338.584.845.584 1.52v4.349h-.91v-.616h-.026c-.334.3-.666.496-.994.59-.33.094-.644.14-.943.14a2.66 2.66 0 0 1-.744-.107 1.989 1.989 0 0 1-.674-.346c-.2-.158-.363-.36-.487-.607s-.186-.55-.186-.908c0-.307.058-.584.173-.83.115-.248.278-.46.488-.634.209-.175.457-.309.744-.402.286-.094.6-.141.942-.141.274 0 .55.027.828.082.277.054.57.166.878.333v-.775c0-.484-.12-.835-.364-1.055-.242-.22-.607-.33-1.092-.33-.306 0-.592.04-.856.116-.264.077-.528.18-.792.307l-.308-.713c.3-.143.616-.258.95-.347a4.368 4.368 0 0 1 1.116-.133zm1.346 3.695a4.34 4.34 0 0 0-.766-.346 2.917 2.917 0 0 0-.92-.129c-.409 0-.754.11-1.035.327-.28.218-.421.532-.421.943 0 .41.118.723.357.936.239.214.584.32 1.035.32.332-.016.65-.106.952-.268.302-.162.568-.36.798-.59v-1.193zm6.516 2.68V29.91h-3.283v2.886h-.911v-6.273h.91v2.591h3.284v-2.59h.91v6.272h-.91zm6.94-6.246l-2.835 2.886 2.911 3.36h-1.09l-2.719-3.193v3.194h-.91v-6.247h.91v2.77l2.693-2.77h1.04z"/>
    </g>
</svg>
