<?xml version="1.0" encoding="UTF-8"?>
<svg width="127px" height="38px" viewBox="0 0 127 38" version="1.1" xmlns="http://www.w3.org/2000/svg" xmlns:xlink="http://www.w3.org/1999/xlink">
    <!-- Generator: Sketch 47.1 (45422) - http://www.bohemiancoding.com/sketch -->
    <title>tinkoff-bank-simple-logo-2 copy</title>
    <desc>Created with Sketch.</desc>
    <defs></defs>
    <g id="Symbols" stroke="none" stroke-width="1" fill="none" fill-rule="evenodd">
        <g id="tinkoff-bank-simple-logo-2-copy" fill="#FFFFFF">
            <path d="M24.8162162,35.8221622 L24.2237838,34.1924324 C24.9286486,33.9778378 26.1405405,33.5162162 26.6837838,33.2091892 L26.3216216,34.3951351 L27.5486486,34.8032432 C26.8064865,35.1756757 25.9064865,35.5232432 24.8162162,35.8221622 M21.1378378,37.287027 C19.7097297,37.287027 18.0805405,36.9583784 17.6,36.7875676 L18.3297297,34.8140541 C18.9345946,34.9908108 20.1935135,35.1783784 21.107027,35.1724324 L21.1648649,35.1724324 C22.0783784,35.1783784 23.3356757,34.9908108 23.9437838,34.8140541 L24.6718919,36.7875676 C24.1918919,36.9583784 22.5621622,37.287027 21.1378378,37.287027 M14.7232432,34.8032432 L15.9524324,34.3951351 L15.5886486,33.2091892 C16.1308108,33.5162162 17.3448649,33.9778378 18.0481081,34.1924324 L17.4551351,35.8221622 C16.3686486,35.5232432 15.4648649,35.1756757 14.7232432,34.8032432 M27.6037838,34.4410811 L26.8567568,34.1545946 L27.0632432,33.3821622 L27.2902703,32.5410811 C27.2902703,32.5410811 25.9664865,33.2594595 24.1005405,33.7983784 C23.5713514,33.9497297 23.1708108,34.0194595 23.1708108,34.0194595 L23.1708108,34.5924324 C23.1708108,34.5924324 22.172973,34.7654054 21.1648649,34.7654054 L21.107027,34.7654054 C20.0978378,34.7654054 19.1016216,34.5924324 19.1016216,34.5924324 L19.1016216,34.0194595 C19.1016216,34.0194595 18.7,33.9497297 18.1713514,33.7983784 C16.3059459,33.2594595 14.9832432,32.5410811 14.9832432,32.5410811 L15.207027,33.3821622 L15.4178378,34.1545946 L14.6681081,34.4410811 L13.8367568,34.7513514 C14.7891892,35.2118919 16.1097297,35.8810811 17.3178378,36.2118919 L17.032973,36.9908108 C17.032973,36.9908108 18.5654054,37.6886486 21.1183784,37.6951351 L21.1183784,37.6967568 L21.152973,37.6967568 L21.152973,37.6951351 C23.7086486,37.6886486 25.24,36.9908108 25.24,36.9908108 L24.9535135,36.2118919 C26.1621622,35.8810811 27.4848649,35.2118919 28.432973,34.7513514 L27.6037838,34.4410811" id="Fill-24"></path>
            <path d="M18.0162162,3.02972973 L18.3556757,3.06540541 L18.5027027,2.75567568 L18.9302703,1.84054054 L19.7248649,2.25135135 L20.0324324,2.40864865 L21.1345946,1.31567568 L21.9935135,2.16594595 L22.2394595,2.40864865 L22.5475676,2.25135135 L23.3372973,1.84054054 L23.7713514,2.75567568 L23.9151351,3.06540541 L24.2545946,3.02972973 L24.5794595,2.99081081 C24.4308108,3.32540541 24.3210811,3.64378378 24.2427027,3.90702703 C23.3854054,3.42918919 22.2713514,3.1572973 21.1345946,3.1572973 C20.0032432,3.1572973 18.8902703,3.42918919 18.0297297,3.90702703 C17.9502703,3.64378378 17.8416216,3.32540541 17.692973,2.99081081 L18.0162162,3.02972973 Z M21.1345946,3.63459459 C22.6556757,3.63459459 23.8724324,4.13891892 24.5448649,4.67567568 C24.5448649,4.67567568 24.7443243,3.47351351 25.4259459,2.41297297 L24.2010811,2.55243243 L23.56,1.19081081 L22.3291892,1.82540541 L21.1345946,0.645405405 L19.9437838,1.82540541 L18.7102703,1.19081081 L18.0702703,2.55243243 L16.8454054,2.41297297 C17.5275676,3.47351351 17.7264865,4.67567568 17.7264865,4.67567568 C18.4032432,4.13891892 19.6162162,3.63459459 21.1345946,3.63459459 L21.1345946,3.63459459 Z" id="Fill-25"></path>
            <path d="M40.4108108,23.8556757 C40.4108108,23.8556757 39.8816216,24.7772973 38.6664865,24.7772973 L38.6513514,24.7772973 C37.192973,24.7686486 36.6048649,23.8789189 36.6048649,23.8789189 C36.6048649,23.8789189 36.6891892,25.0362162 36.1643243,26.5983784 C35.5313514,28.4810811 36.1697297,29.8259459 36.1697297,29.8259459 C36.1697297,29.8259459 35.8286486,29.9183784 35.4367568,29.9183784 C35.287027,29.9183784 35.1302703,29.9032432 34.9827027,29.8648649 C33.7643243,29.5756757 33.4605405,28.4664865 33.4605405,28.4664865 C33.4605405,28.4664865 33.5724324,32.2118919 29.2054054,32.2118919 L29.1713514,32.2118919 C29.1713514,32.2118919 29.5562162,31.6886486 29.6697297,30.1827027 C29.8772973,27.4032432 31.7589189,27.0216216 31.7589189,27.0216216 C31.7589189,27.0216216 30.7545946,26.8956757 30.3194595,26.5059459 C29.6389189,25.8886486 29.687027,25.1762162 29.687027,25.1762162 C31.2232432,25.1545946 32.2302703,24.6313514 32.9972973,23.7443243 C33.8281081,22.7832432 33.9648649,21.7481081 33.9648649,21.7481081 C33.9648649,21.7481081 33.1383784,22.4972973 31.5410811,22.4972973 C31.4005405,22.4972973 31.2502703,22.4902703 31.0962162,22.4756757 C30.34,22.4140541 29.8178378,21.9340541 29.8178378,21.9340541 C31.4810811,20.867027 32.6475676,19.0064865 31.612973,16.2048649 C30.7837838,13.9589189 28.7924324,12.2816216 26.787027,11.0178378 C26.12,10.6016216 25.7481081,10.1378378 25.7481081,9.73945946 C25.7481081,8.80108108 27.0827027,8.77081081 27.6291892,8.14108108 C28.2610811,7.40810811 27.8648649,6.22 27.3178378,5.50432432 C27.3178378,5.50432432 27.5021622,5.46702703 27.792973,5.46702703 C28.3697297,5.46702703 29.3686486,5.61189189 30.1897297,6.46324324 C31.2794595,7.59081081 30.8275676,8.81945946 30.8275676,8.81945946 L31.1194595,8.87621622 C31.2940541,8.91297297 31.4681081,8.92 31.6486486,8.92918919 C31.6875676,8.92918919 31.7275676,8.93135135 31.7659459,8.93135135 C33.3497297,8.93135135 34.0578378,7.27567568 34.0578378,7.27567568 C34.0578378,7.27567568 35.7410811,9.34648649 33.2621622,10.9697297 C32.8356757,11.247027 32.6475676,11.5048649 32.6967568,11.7789189 L32.7356757,11.9589189 L32.9118919,11.9902703 C34.7086486,12.4772973 35.6178378,13.7172973 36.7281081,15.1259459 C38.4145946,17.2691892 40.7994595,17.3383784 41.0935135,17.3383784 L41.1254054,17.3383784 C41.1254054,17.3383784 40.5816216,19.0567568 38.9772973,19.0567568 C38.9502703,19.0567568 38.9275676,19.0567568 38.9010811,19.0551351 C38.1643243,19.0286486 37.7859459,18.7464865 37.7859459,18.7464865 C37.7859459,18.7464865 37.4989189,22.647027 40.4108108,23.8556757 M38.9772973,19.5827027 C40.9437838,19.5827027 41.6021622,17.5821622 41.6291892,17.4962162 L41.8491892,16.7908108 L41.1118919,16.8140541 L41.1091892,16.8140541 C40.8491892,16.8140541 38.6789189,16.7562162 37.1405405,14.8010811 L36.9951351,14.6194595 C35.9897297,13.3416216 35.0367568,12.1254054 33.3318919,11.5708108 C33.3810811,11.5259459 33.4518919,11.4718919 33.5486486,11.4086486 C34.4535135,10.8140541 34.9794595,10.0913514 35.1113514,9.25243243 C35.3048649,7.99081081 34.4994595,6.98432432 34.4643243,6.94324324 L33.9167568,6.26594595 L33.5745946,7.06918919 C33.5513514,7.11945946 32.9767568,8.40540541 31.7659459,8.40540541 L31.6756757,8.40540541 C31.592973,8.40108108 31.5135135,8.39783784 31.4362162,8.39135135 C31.4783784,7.81783784 31.3740541,6.93027027 30.5686486,6.09675676 C29.6005405,5.09459459 28.4135135,4.94432432 27.792973,4.94432432 C27.4610811,4.94432432 27.2405405,4.98540541 27.2162162,4.98756757 L26.3897297,5.15189189 L26.8994595,5.82432432 C27.3,6.3427027 27.6627027,7.29945946 27.2324324,7.79891892 C27.0945946,7.95837838 26.8118919,8.08702703 26.5410811,8.21675676 C25.9843243,8.47243243 25.2232432,8.83081081 25.2232432,9.73945946 C25.2232432,10.3275676 25.68,10.9432432 26.5075676,11.4664865 C28.9562162,13.0064865 30.467027,14.6135135 31.1194595,16.3875676 C32.1291892,19.1162162 30.8118919,20.6724324 29.532973,21.492973 L28.9589189,21.8616216 L29.4616216,22.3232432 C29.5291892,22.3827027 30.1427027,22.9237838 31.0508108,23.0016216 C31.2227027,23.012973 31.387027,23.0221622 31.5410811,23.0221622 C32.1221622,23.0221622 32.6178378,22.9308108 33.0205405,22.8081081 C32.9102703,23.0016216 32.772973,23.2 32.6021622,23.3989189 C31.8713514,24.2459459 30.9718919,24.6313514 29.6783784,24.6524324 L29.1978378,24.66 L29.1610811,25.1421622 C29.1562162,25.2394595 29.1205405,26.1335135 29.9659459,26.8935135 C30.0956757,27.0113514 30.2518919,27.1081081 30.4162162,27.187027 C29.8421622,27.7037838 29.2594595,28.6037838 29.1464865,30.1448649 C29.0508108,31.4313514 28.7443243,31.9075676 28.7405405,31.9124324 L28.2097297,32.7232432 L29.1697297,32.7362162 C30.7556757,32.7362162 31.9702703,32.2989189 32.8118919,31.4313514 C33.3091892,30.9183784 33.5940541,30.3389189 33.7616216,29.8259459 C34.0378378,30.0610811 34.3940541,30.2675676 34.8589189,30.3772973 C35.0351351,30.4183784 35.2275676,30.4410811 35.4367568,30.4410811 C35.8848649,30.4410811 36.26,30.3459459 36.3016216,30.3356757 L36.9145946,30.172973 L36.6437838,29.6010811 C36.6237838,29.5551351 36.1124324,28.4064865 36.6627027,26.7691892 C36.8994595,26.0605405 37.0205405,25.4264865 37.0794595,24.9324324 C37.4654054,25.1335135 37.9827027,25.2994595 38.6508108,25.3016216 C40.1681081,25.3016216 40.8372973,24.1681081 40.867027,24.1205405 L41.1659459,23.6 L40.6118919,23.3718919 C38.8037838,22.6210811 38.4032432,20.6048649 38.3232432,19.5135135 C38.4864865,19.5454054 38.6735135,19.5740541 38.8843243,19.58 L38.9772973,19.5827027" id="Fill-26"></path>
            <path d="M36.767027,11.0227027 C37.1335135,11.0227027 37.5605405,11.1475676 37.9643243,11.5648649 C39.2318919,12.8513514 40.4108108,12.9232432 40.4108108,12.9232432 C40.1967568,13.3978378 39.5756757,13.8140541 38.9324324,13.8140541 C38.7837838,13.8140541 38.6340541,13.7913514 38.4864865,13.74 C37.6140541,13.4459459 37.3021622,12.1383784 35.7708108,11.3232432 C35.7708108,11.3232432 36.1978378,11.0227027 36.767027,11.0227027 M35.5210811,11.7881081 C36.2545946,12.1789189 36.6821622,12.7027027 37.0567568,13.167027 C37.4254054,13.6205405 37.7740541,14.0562162 38.3216216,14.2378378 C38.5156757,14.3043243 38.7221622,14.3362162 38.9324324,14.3362162 C39.7524324,14.3362162 40.5772973,13.8340541 40.8897297,13.1383784 L41.2043243,12.4416216 L40.4432432,12.3962162 C40.4075676,12.3956757 39.4286486,12.3059459 38.3405405,11.1940541 C37.8924324,10.7372973 37.3502703,10.4978378 36.767027,10.4978378 C36.0540541,10.4978378 35.5254054,10.8540541 35.467027,10.8908108 L34.7681081,11.3832432 L35.5210811,11.7881081" id="Fill-27"></path>
            <path d="M35.8654054,18.7351351 L35.8654054,18.7621622 C35.4243243,15.2 32.8378378,12.6275676 29.9594595,11.0643243 C29.6935135,10.9216216 29.447027,10.8005405 29.2091892,10.6848649 C30.0848649,10.8210811 31.4962162,10.8372973 32.5859459,9.89243243 C32.5859459,9.89243243 30.9189189,11.1183784 27.5054054,10.0048649 C28.4497297,10.6178378 30.2859459,11.4832432 31.9632432,12.8848649 C36.1535135,16.5675676 33.1556757,20.1594595 33.1556757,20.1594595 C34.6616216,18.5875676 34.7243243,16.9037838 34.2810811,15.5286486 C35.0740541,16.8491892 35.5810811,18.4508108 35.5021622,20.427027 C35.387027,23.2572973 33.8308108,25.7054054 32.1940541,27.6718919 C31.4075676,28.6264865 31.2318919,29.7994595 31.2318919,29.7994595 C31.2318919,29.7994595 31.5491892,28.7643243 32.4594595,27.6994595 C34.2140541,25.6454054 35.7140541,23.5124324 35.9108108,20.4378378 C36.0918919,20.9962162 36.8394595,22.5464865 38.0248649,23.1308108 C38.0248649,23.1308108 36.5351351,22.232973 35.8654054,18.7351351" id="Fill-28"></path>
            <path d="M13.0664865,32.2118919 C8.69891892,32.2118919 8.81027027,28.4664865 8.81027027,28.4664865 C8.81027027,28.4664865 8.50540541,29.5756757 7.28864865,29.8648649 C7.1427027,29.9032432 6.98702703,29.9183784 6.83513514,29.9183784 C6.44324324,29.9183784 6.10378378,29.8259459 6.10378378,29.8259459 C6.10378378,29.8259459 6.73891892,28.4810811 6.10594595,26.5983784 C5.5827027,25.0367568 5.66756757,23.8789189 5.66756757,23.8789189 C5.66756757,23.8789189 5.08054054,24.7686486 3.62054054,24.7772973 L3.60594595,24.7772973 C2.39189189,24.7772973 1.86162162,23.8556757 1.86162162,23.8556757 C4.77135135,22.647027 4.48648649,18.7464865 4.48648649,18.7464865 C4.48648649,18.7464865 4.10810811,19.0286486 3.37027027,19.0551351 C3.34324324,19.0567568 3.31945946,19.0567568 3.29405405,19.0567568 C1.68864865,19.0567568 1.14486486,17.3383784 1.14486486,17.3383784 L1.1772973,17.3383784 C1.47405405,17.3383784 3.85621622,17.2686486 5.54162162,15.1259459 C6.65243243,13.7167568 7.5627027,12.4778378 9.35675676,11.9902703 L9.53675676,11.9583784 L9.57513514,11.7789189 C9.62486486,11.5048649 9.4372973,11.247027 9.01081081,10.9697297 C6.53243243,9.34648649 8.21567568,7.27621622 8.21567568,7.27621622 C8.21567568,7.27621622 8.91945946,8.93135135 10.5075676,8.93135135 C10.5459459,8.93135135 10.5821622,8.92972973 10.6232432,8.92972973 C10.8016216,8.92 10.9778378,8.91297297 11.1518919,8.87621622 L11.4437838,8.81945946 C11.4437838,8.81945946 10.9902703,7.59081081 12.0832432,6.46324324 C12.9043243,5.61189189 13.9021622,5.46702703 14.4789189,5.46702703 C14.7713514,5.46702703 14.952973,5.50432432 14.952973,5.50432432 C14.407027,6.22 14.0113514,7.40810811 14.6427027,8.14108108 C15.1891892,8.77081081 16.5221622,8.80108108 16.5221622,9.73945946 C16.5221622,10.1378378 16.1508108,10.6016216 15.4848649,11.0178378 C13.4778378,12.2816216 11.487027,13.9589189 10.6583784,16.2048649 C9.62486486,19.007027 10.7913514,20.867027 12.4567568,21.9340541 C12.4567568,21.9340541 11.932973,22.4140541 11.1756757,22.4756757 C11.0216216,22.4902703 10.8724324,22.4972973 10.7291892,22.4972973 C9.13351351,22.4972973 8.30756757,21.7481081 8.30756757,21.7481081 C8.30756757,21.7481081 8.44486486,22.7832432 9.27081081,23.7448649 C10.0427027,24.6313514 11.0481081,25.1545946 12.5848649,25.1762162 C12.5848649,25.1762162 12.6335135,25.8886486 11.9540541,26.5054054 C11.5178378,26.8956757 10.512973,27.0216216 10.512973,27.0216216 C10.512973,27.0216216 12.3962162,27.4032432 12.6032432,30.1821622 C12.7156757,31.6886486 13.0978378,32.2118919 13.0978378,32.2118919 L13.0664865,32.2118919 Z M13.5308108,31.9124324 C13.5291892,31.9075676 13.2243243,31.4313514 13.1264865,30.1448649 C13.0124324,28.6032432 12.4297297,27.7037838 11.8540541,27.187027 C12.0205405,27.1081081 12.1745946,27.0113514 12.3043243,26.8935135 C13.1497297,26.1335135 13.1140541,25.2394595 13.1081081,25.1421622 L13.0756757,24.66 L12.5913514,24.6524324 C11.3016216,24.6313514 10.4005405,24.2459459 9.66972973,23.3989189 C9.5,23.2 9.3627027,23.0016216 9.25135135,22.8081081 C9.65351351,22.9308108 10.1459459,23.0221622 10.7291892,23.0221622 C10.8854054,23.0221622 11.0481081,23.012973 11.22,23.0016216 C12.1281081,22.9237838 12.7427027,22.3832432 12.8108108,22.3232432 L13.3135135,21.8616216 L12.74,21.492973 C11.4562162,20.6724324 10.1443243,19.1162162 11.1518919,16.3875676 C11.8048649,14.6135135 13.3135135,13.0064865 15.7659459,11.4664865 C16.5935135,10.9432432 17.0464865,10.3275676 17.0464865,9.73945946 C17.0464865,8.83081081 16.2875676,8.47243243 15.7308108,8.21675676 C15.4594595,8.08702703 15.1767568,7.95837838 15.0394595,7.79891892 C14.6081081,7.29945946 14.9713514,6.3427027 15.3718919,5.82432432 L15.8854054,5.15189189 L15.0540541,4.98756757 C15.0297297,4.98486486 14.8118919,4.94432432 14.4789189,4.94432432 C13.8583784,4.94432432 12.6735135,5.09459459 11.7059459,6.09675676 C10.8994595,6.93081081 10.7935135,7.81783784 10.8351351,8.39135135 C10.7572973,8.39783784 10.6789189,8.40108108 10.5962162,8.40540541 L10.5075676,8.40540541 C9.29351351,8.40540541 8.72,7.11945946 8.69783784,7.06918919 L8.35675676,6.26594595 L7.80378378,6.94324324 C7.77297297,6.98432432 6.96540541,7.99081081 7.16216216,9.25243243 C7.29243243,10.0913514 7.81945946,10.8140541 8.72378378,11.4086486 C8.82216216,11.4718919 8.89081081,11.5259459 8.94,11.5708108 C7.23297297,12.1254054 6.28108108,13.3416216 5.27567568,14.6194595 L5.13081081,14.8010811 C3.59459459,16.7562162 1.41945946,16.8140541 1.15945946,16.8140541 L0.418378378,16.7908108 L0.643783784,17.4962162 C0.67027027,17.5821622 1.32594595,19.5827027 3.29405405,19.5827027 L3.38864865,19.58 C3.5972973,19.5740541 3.78378378,19.5454054 3.94972973,19.5135135 C3.86864865,20.6043243 3.46702703,22.6210811 1.65837838,23.3718919 L1.10594595,23.6 L1.40486486,24.1205405 C1.43351351,24.1681081 2.10486486,25.3016216 3.62486486,25.3016216 C4.28918919,25.2994595 4.80594595,25.1335135 5.19243243,24.932973 C5.25081081,25.4264865 5.37243243,26.0605405 5.60972973,26.7691892 C6.16,28.4064865 5.64756757,29.5551351 5.62810811,29.6010811 L5.35621622,30.172973 L5.97027027,30.3356757 C6.01081081,30.3459459 6.38864865,30.4410811 6.83513514,30.4410811 C7.04378378,30.4410811 7.23675676,30.4183784 7.41135135,30.3772973 C7.87675676,30.2675676 8.23675676,30.0610811 8.51027027,29.8259459 C8.67675676,30.3389189 8.9627027,30.9183784 9.45891892,31.4313514 C10.3027027,32.2989189 11.5162162,32.7362162 13.1016216,32.7362162 L14.0621622,32.7232432 L13.5308108,31.9124324 L13.5308108,31.9124324 Z" id="Fill-29"></path>
            <path d="M4.30594595,11.5643243 C4.71135135,11.1475676 5.13783784,11.0221622 5.50648649,11.0221622 C6.07243243,11.0221622 6.50108108,11.3232432 6.50108108,11.3232432 C4.97135135,12.1383784 4.65567568,13.4459459 3.78216216,13.7405405 C3.63783784,13.7918919 3.48810811,13.8135135 3.33891892,13.8135135 C2.69621622,13.8135135 2.07405405,13.3978378 1.86162162,12.9232432 C1.86162162,12.9232432 3.04,12.8513514 4.30594595,11.5643243 M3.33891892,14.3362162 C3.54972973,14.3362162 3.75567568,14.3048649 3.95027027,14.2383784 C4.49891892,14.0562162 4.84756757,13.6210811 5.21567568,13.167027 C5.59243243,12.7032432 6.01513514,12.1789189 6.74918919,11.7881081 L7.50432432,11.3832432 L6.80324324,10.8902703 C6.74486486,10.8535135 6.21891892,10.4983784 5.50648649,10.4983784 C4.92162162,10.4983784 4.37891892,10.7372973 3.93135135,11.1940541 C2.84162162,12.3064865 1.86540541,12.3956757 1.83027027,12.3967568 L1.07027027,12.4416216 L1.38216216,13.1389189 C1.69621622,13.8340541 2.51945946,14.3362162 3.33891892,14.3362162" id="Fill-30"></path>
            <path d="M6.77081081,20.427027 C6.68918919,18.4508108 7.19675676,16.8491892 7.99081081,15.5286486 C7.54810811,16.9037838 7.60810811,18.5875676 9.11621622,20.16 C9.11621622,20.16 6.1172973,16.5675676 10.3102703,12.8848649 C11.9864865,11.4832432 13.8210811,10.6178378 14.7654054,10.0048649 C11.352973,11.1183784 9.68648649,9.89243243 9.68648649,9.89243243 C10.7751351,10.8372973 12.187027,10.8210811 13.0621622,10.6848649 C12.8254054,10.8005405 12.5767568,10.9210811 12.3124324,11.0643243 C9.43297297,12.6275676 6.84810811,15.2 6.40486486,18.7621622 L6.40486486,18.7351351 C5.73621622,22.232973 4.24756757,23.1308108 4.24756757,23.1308108 C5.43189189,22.5464865 6.17783784,20.9962162 6.35945946,20.4378378 C6.5572973,23.5124324 8.0572973,25.6454054 9.81135135,27.6994595 C10.7216216,28.7643243 11.0421622,29.7994595 11.0421622,29.7994595 C11.0421622,29.7994595 10.8643243,28.6264865 10.0740541,27.6718919 C8.44,25.7059459 6.88540541,23.2572973 6.77081081,20.427027" id="Fill-31"></path>
            <path d="M20.1491892,13.22 L20.1491892,13.9264865 C20.3935135,13.6297297 20.8632432,13.6902703 20.8632432,13.6902703 L20.8632432,14.7086486 C20.8632432,14.7086486 20.8475676,15.2097297 20.6691892,15.4264865 L21.6881081,15.4264865 C21.5118919,15.2097297 21.4945946,14.7086486 21.4945946,14.7086486 L21.4945946,13.6902703 C21.4945946,13.6902703 21.9659459,13.6297297 22.2081081,13.9264865 L22.2081081,13.22 L20.1491892,13.22" id="Fill-32"></path>
            <path d="M19.7118919,9.03081081 C20.0378378,9.28918919 20.2259459,9.33243243 20.2318919,9.33621622 L20.3594595,9.39513514 L20.3594595,8.73027027 L19.1621622,8.22702703 C19.1621622,8.22702703 19.1724324,8.61243243 19.7118919,9.03081081" id="Fill-33"></path>
            <path d="M22.5583784,9.03081081 C23.0994595,8.61243243 23.1097297,8.22702703 23.1097297,8.22702703 L21.9124324,8.73027027 L21.9124324,9.39513514 L22.0389189,9.33621622 C22.0454054,9.33243243 22.232973,9.28918919 22.5583784,9.03081081" id="Fill-34"></path>
            <path d="M21.1345946,7.25945946 L18.2508108,6.12 C18.4962162,5.53945946 19.627027,5.04540541 21.1345946,5.04378378 C22.6443243,5.04540541 23.7751351,5.53945946 24.0194595,6.12 L21.1345946,7.25945946 Z M23.2848649,10.8286486 L21.3464865,11.8502703 L21.3464865,7.71405405 L23.9767568,6.82108108 L23.2848649,10.8286486 Z M24.4854054,11.9264865 L25.3718919,12.4410811 L25.3843243,12.4410811 L25.607027,12.5713514 C25.1064865,12.7097297 24.7243243,12.96 24.4032432,13.2886486 C24.3913514,13.2989189 24.3810811,13.3108108 24.3681081,13.3232432 C24.2945946,13.4016216 24.2216216,13.4859459 24.1513514,13.5735135 C24.1389189,13.5897297 24.1248649,13.607027 24.1102703,13.6264865 C24.0421622,13.7145946 23.9767568,13.8054054 23.9151351,13.8989189 C23.9048649,13.9151351 23.892973,13.9313514 23.8821622,13.947027 C23.8091892,14.0567568 23.7383784,14.1735135 23.6686486,14.2945946 C23.0372973,15.3821622 22.0302703,16.0318919 21.1345946,16.0335135 C20.24,16.0318919 19.2324324,15.3821622 18.6021622,14.2945946 C18.5335135,14.1767568 18.4643243,14.0627027 18.3913514,13.9518919 C18.3767568,13.9313514 18.3637838,13.9097297 18.3502703,13.8918919 C18.2886486,13.8016216 18.2259459,13.712973 18.1632432,13.6297297 C18.147027,13.607027 18.1324324,13.5897297 18.1162162,13.5702703 C18.0475676,13.4859459 17.9772973,13.4027027 17.9059459,13.3259459 C17.8908108,13.3135135 17.8805405,13.2989189 17.8675676,13.2864865 C17.5448649,12.9572973 17.1637838,12.7097297 16.6627027,12.5713514 L16.8875676,12.4410811 L16.8978378,12.4410811 L17.7859459,11.9264865 L18.6967568,11.4048649 L21.1302703,12.7297297 L21.1345946,12.7243243 L21.1416216,12.7297297 L23.5745946,11.4048649 L24.4854054,11.9264865 Z M27.9821622,15.6059459 C27.7837838,16.1297297 27.6194595,16.6967568 27.6194595,17.2605405 L27.6210811,20.9005405 C26.8605405,20.772973 26.7708108,19.9540541 26.7675676,19.9183784 L26.7535135,19.7518919 L26.5897297,19.7372973 C26.2594595,19.7054054 26.04,19.5659459 25.8551351,19.3864865 C25.4821622,19.0135135 25.4816216,18.4091892 25.4821622,18.4037838 C25.4767568,18.4345946 25.0718919,19.0021622 25.5421622,19.6221622 C25.74,19.8832432 26.027027,20.0443243 26.3978378,20.1075676 C26.4848649,20.5616216 26.8232432,21.2032432 27.6210811,21.3010811 L27.6210811,23.0827027 L25.3767568,23.0827027 C24.3421622,22.5064865 24.7805405,21.4935135 24.8005405,21.4497297 L24.8881081,21.2578378 L24.6902703,21.1827027 C23.5691892,20.767027 23.8783784,19.6491892 23.892973,19.6010811 L23.9383784,19.4378378 L23.7854054,19.3659459 C22.8605405,18.9367568 22.9854054,17.7816216 22.9978378,17.732973 C22.712973,17.9643243 22.6108108,18.4345946 22.8064865,18.8962162 C22.7005405,19.0178378 22.5583784,19.1637838 22.4021622,19.3254054 C21.4437838,19.0810811 21.4140541,18.2005405 21.4140541,18.16 L21.4118919,18.0243243 L21.2859459,17.9756757 C20.9118919,17.8372973 20.6551351,17.6291892 20.5281081,17.3502703 C20.3864865,17.0410811 20.4362162,16.7172973 20.4751351,16.5610811 C20.5848649,16.5864865 20.6940541,16.6032432 20.7983784,16.6124324 C20.9064865,16.6232432 21.0167568,16.6302703 21.1281081,16.6302703 L21.1432432,16.6302703 C21.2540541,16.6302703 21.3637838,16.6232432 21.4718919,16.6124324 C22.0691892,16.552973 22.7372973,16.2967568 23.4340541,15.6059459 L27.9821622,15.6059459 Z M25.1778378,31.4686486 L25.4286486,30.1627027 C25.4416216,30.0859459 25.4578378,29.9962162 25.4686486,29.9210811 C25.54,29.9508108 25.6140541,29.9745946 25.6951351,29.9897297 C25.7891892,30.0075676 25.8751351,30.0167568 25.9535135,30.0167568 C26.3362162,30.0167568 26.5594595,29.8156757 26.7075676,29.6437838 L26.8994595,29.42 L26.7427027,29.1740541 C26.7286486,29.1497297 26.3805405,28.6 26.1135135,28.2237838 C26.0605405,28.1497297 26.0108108,28.0762162 25.96,27.9967568 C25.6556757,27.5416216 25.2751351,26.9713514 24.5113514,26.9713514 L24.4432432,26.972973 C24.3178378,26.9810811 24.2097297,27.0059459 24.1221622,27.0389189 C23.8821622,26.927027 23.6345946,26.8686486 23.3772973,26.8686486 C23.0610811,26.8686486 22.7962162,26.9556757 22.6189189,27.0156757 C22.5681081,27.0302703 22.5227027,27.0464865 22.487027,27.0535135 L21.06,26.912973 C21.0421622,26.9091892 20.9843243,26.8751351 20.912973,26.7913514 L20.912973,26.7843243 L21.2216216,26.6605405 C21.1345946,25.6318919 20.147027,24.9994595 19.5967568,24.7848649 C19.572973,24.6821622 19.5232432,24.5794595 19.4367568,24.4956757 L19.1302703,24.2048649 L18.8605405,24.5281081 L18.7281081,24.6924324 L16.7297297,23.8718919 L18.0297297,25.5037838 L17.5167568,26.2810811 C17.3291892,26.48 17.5362162,26.6805405 17.5362162,26.6805405 L18.0664865,27.0454054 L18.6156757,26.8405405 C18.6345946,26.8405405 18.6513514,26.8448649 18.6702703,26.847027 C18.6432432,26.9302703 18.6086486,27.2578378 18.5859459,27.3491892 L17.6324324,27.1621622 L16.6308108,27.7275676 C16.1156757,28.1059459 16.0454054,28.7313514 16.2367568,29.16 L16.3475676,29.4027027 L16.5054054,29.7459459 L16.8562162,29.6010811 C16.8610811,29.5994595 16.8659459,29.5978378 16.8691892,29.5951351 C16.7432432,29.9978378 16.7945946,30.3805405 17.0189189,30.6313514 L17.2318919,30.8989189 L17.5151351,31.2567568 L17.8259459,30.9227027 C17.9167568,30.8318919 18.2140541,30.4994595 18.3048649,30.2151351 L18.3724324,29.9978378 L18.2210811,29.8308108 L18.1956757,29.8005405 L18.3664865,29.5189189 L19.6108108,29.8124324 L19.8913514,29.8767568 L20.04,29.6308108 L20.1210811,29.4972973 C20.1367568,29.4686486 20.14,29.4643243 20.1978378,29.4643243 C20.2421622,29.4643243 20.2859459,29.4686486 20.3335135,29.4794595 C20.8032432,29.5681081 21.2362162,29.6118919 21.6205405,29.6118919 C21.9935135,29.6118919 22.2167568,29.5978378 22.4821622,29.5097297 C22.4821622,29.5097297 23.1502703,30.2686486 23.1735135,30.2978378 L22.7637838,31.5605405 L22.7459459,31.6367568 C21.9708108,31.6994595 21.5935135,31.8697297 21.1372973,32.3248649 C20.4751351,31.6681081 20.0059459,31.5989189 18.2259459,31.5989189 C16.0951351,31.5989189 14.6508108,30.3497297 14.6508108,28.3540541 L14.6508108,23.4756757 L27.6210811,23.4756757 L27.6237838,28.3540541 C27.6237838,29.9713514 26.6740541,31.1005405 25.1778378,31.4686486 L25.1778378,31.4686486 Z M17.1891892,28.7102703 L17.2567568,28.8789189 C17.2118919,29.0264865 16.7059459,29.2351351 16.7059459,29.2351351 L16.5967568,28.9956757 C16.4805405,28.7405405 16.5054054,28.3102703 16.8578378,28.047027 L17.6783784,27.5475676 L18.5486486,27.7318919 C18.5324324,28.0081081 18.6972973,28.2145946 18.6972973,28.2145946 L17.7859459,28.0394595 L17.2405405,28.4162162 C17.1475676,28.4810811 17.1410811,28.6 17.1891892,28.7102703 L17.1891892,28.7102703 Z M25.0405405,30.0891892 L24.7610811,31.5481081 C24.5816216,31.5735135 24.3935135,31.5864865 24.1989189,31.5940541 L24.4940541,30.1918919 C24.5816216,29.7751351 23.4627027,29.6454054 22.9097297,28.8259459 C22.64,29.1291892 22.1318919,29.22 21.6205405,29.22 C21.1545946,29.22 20.6891892,29.1459459 20.4059459,29.0897297 C20.3340541,29.0783784 20.2654054,29.0702703 20.1978378,29.0702703 C20.0345946,29.0702703 19.8854054,29.1210811 19.7821622,29.2935135 L19.7010811,29.4308108 L18.1762162,29.0718919 L17.7967568,29.7 C17.7437838,29.8021622 17.7394595,29.8875676 17.8259459,29.9827027 L17.9286486,30.0951351 C17.8578378,30.3172973 17.5405405,30.6535135 17.5405405,30.6535135 L17.3140541,30.3702703 C17.1345946,30.1697297 17.1637838,29.8021622 17.3508108,29.4621622 L17.9556757,28.4410811 L19.2475676,28.6275676 L19.047027,28.1702703 C18.7772973,27.5648649 19.1886486,26.7956757 19.2324324,26.3524324 C19.2172973,26.4864865 19.0940541,26.5167568 18.9513514,26.5167568 C18.8210811,26.5167568 18.6756757,26.4918919 18.5789189,26.4918919 C18.5405405,26.4918919 18.5081081,26.4956757 18.4908108,26.5086486 L18.1405405,26.7210811 L17.8648649,26.4767568 C17.8313514,26.4302703 17.8210811,26.32 17.9016216,26.2378378 L18.5405405,25.5210811 L17.7859459,24.6389189 L18.8427027,25.1702703 L19.1659459,24.7789189 C19.2545946,24.8659459 19.2156757,25.092973 19.2156757,25.092973 C19.5454054,25.1010811 20.4708108,25.6124324 20.52,26.807027 C20.5227027,26.8437838 20.5227027,26.8843243 20.5227027,26.9237838 C20.5227027,26.9237838 20.5313514,26.9389189 20.5475676,26.9632432 C20.6124324,27.0535135 20.7935135,27.2837838 21.0221622,27.3048649 L22.4832432,27.4497297 L22.4891892,27.4497297 C22.6491892,27.4497297 22.9681081,27.2616216 23.3772973,27.2616216 C23.6005405,27.2616216 23.8481081,27.3183784 24.1124324,27.4848649 C24.1124324,27.4848649 24.2459459,27.3794595 24.4610811,27.3686486 C24.4772973,27.3664865 24.4962162,27.3664865 24.5113514,27.3664865 C25.1664865,27.3664865 25.4389189,27.9589189 25.7908108,28.4508108 C26.0551351,28.8259459 26.4086486,29.3816216 26.4086486,29.3816216 C26.2783784,29.5362162 26.1572973,29.6227027 25.9535135,29.6227027 C25.8978378,29.6227027 25.8345946,29.6183784 25.7654054,29.6043243 C25.0621622,29.4745946 24.9610811,28.0297297 24.56,27.9156757 C24.5383784,27.9097297 24.5167568,27.9075676 24.4962162,27.9075676 C24.367027,27.9075676 24.3108108,28.0221622 24.3108108,28.0221622 C24.4940541,28.5151351 24.3864865,28.7140541 24.5843243,29.0935135 C24.7313514,29.3751351 24.9935135,29.6064865 25.1010811,29.7162162 C25.1010811,29.7162162 25.0718919,29.9297297 25.0405405,30.0891892 L25.0405405,30.0891892 Z M23.6956757,31.6037838 C23.4989189,31.6037838 23.3178378,31.6064865 23.1551351,31.612973 L23.5832432,30.28 C23.6497297,30.0951351 23.3118919,29.8578378 23.1718919,29.6497297 C23.3827027,29.7821622 23.9291892,30.0724324 24.1918919,30.1881081 C24.1654054,30.2313514 23.6956757,31.6037838 23.6956757,31.6037838 L23.6956757,31.6037838 Z M17.3318919,19.5918919 L17.392973,17.2745946 L17.912973,16.7243243 L18.2394595,17.4081081 L17.5956757,19.6324324 L17.3318919,19.5918919 Z M17.7059459,20.3097297 C17.7908108,20.4881081 17.9437838,20.607027 18.0513514,20.6745946 C18.0475676,20.8421622 18.0318919,21.1010811 17.9881081,21.3302703 C17.9772973,21.3816216 17.9643243,21.4286486 17.9502703,21.4756757 C17.9427027,21.5054054 17.9340541,21.5297297 17.9281081,21.5491892 C17.7686486,21.5491892 17.4572973,21.5297297 17.2016216,21.4367568 C16.9189189,21.3324324 16.4972973,20.8140541 16.5945946,20.2421622 C16.7167568,20.1675676 17,20.0081081 17.2654054,20.0081081 C17.4691892,20.0081081 17.6086486,20.1043243 17.7059459,20.3097297 L17.7059459,20.3097297 Z M23.7291892,20.9324324 C23.3291892,21.227027 22.2989189,21.9794595 21.9248649,22.2405405 L18.3275676,21.5940541 C18.3362162,21.5621622 18.3448649,21.5297297 18.3524324,21.4983784 C18.3994595,21.3113514 18.4481081,21.0567568 18.4502703,20.7567568 L21.4740541,20.8054054 L21.5318919,20.7464865 C21.5778378,20.7005405 22.5356757,19.7751351 23.0237838,19.2427027 C23.14,19.3886486 23.2848649,19.5275676 23.4756757,19.6491892 C23.4108108,20.0037838 23.4383784,20.5075676 23.7291892,20.9324324 L23.7291892,20.9324324 Z M18.8372973,15.6059459 C19.2697297,16.0356757 19.692973,16.3027027 20.0951351,16.4497297 C20.0432432,16.6572973 19.9745946,17.0854054 20.1681081,17.5118919 C20.3264865,17.8556757 20.6135135,18.1205405 21.0286486,18.2972973 C21.0740541,18.7227027 21.3432432,19.3621622 22.0864865,19.6437838 C21.7605405,19.9724324 21.4437838,20.2821622 21.3156757,20.407027 L18.2983784,20.3594595 C18.2302703,20.3254054 18.112973,20.2481081 18.0610811,20.1394595 C18.0551351,20.1237838 18.0454054,20.1156757 18.0389189,20.1005405 L18.5313514,20.18 C18.5416216,20.1816216 18.5524324,20.1816216 18.5627027,20.1816216 C18.6578378,20.1816216 18.7405405,20.1156757 18.7562162,20.0178378 C18.7724324,19.9091892 18.7,19.8086486 18.5935135,19.7918919 L17.9881081,19.6962162 L18.6594595,17.3751351 L18.0232432,16.0356757 L17.0032432,17.1140541 L16.9405405,19.5275676 L16.2551351,19.4183784 C16.1491892,19.3978378 16.0481081,19.4751351 16.0291892,19.5827027 C16.012973,19.6886486 16.0854054,19.7897297 16.192973,19.8086486 L16.4805405,19.8524324 C16.3778378,19.9108108 16.3097297,19.9572973 16.3016216,19.9637838 L16.2437838,20.0043243 L16.2275676,20.0762162 C16.0610811,20.7535135 16.4378378,21.3962162 16.8454054,21.6837838 L16.8308108,21.7691892 C16.8140541,21.8735135 16.8378378,21.9751351 16.9005405,22.06 C16.96,22.147027 17.0502703,22.1989189 17.152973,22.2172973 C17.1740541,22.2210811 17.1967568,22.2227027 17.2162162,22.2227027 C17.392973,22.2227027 17.547027,22.1005405 17.5902703,21.9221622 C17.7416216,21.94 17.8805405,21.9437838 17.9756757,21.9437838 L18.0567568,21.9437838 L22.0151351,22.6594595 L22.0827027,22.6145946 C22.3978378,22.3940541 23.6005405,21.5178378 23.9945946,21.2275676 C24.1032432,21.3210811 24.2243243,21.4054054 24.3708108,21.4756757 C24.2427027,21.9032432 24.2351351,22.5621622 24.7394595,23.0827027 L14.6508108,23.0827027 L14.6508108,17.2605405 C14.6508108,16.6967568 14.4859459,16.1297297 14.2908108,15.6059459 L18.8372973,15.6059459 Z M18.2918919,6.82108108 L20.9243243,7.71405405 L20.9243243,11.8502703 L18.9859459,10.8286486 L18.2918919,6.82108108 Z M24.7145946,6.32216216 C24.7145946,5.31297297 23.0156757,4.40486486 21.1405405,4.40486486 L21.1302703,4.40486486 C19.2551351,4.40486486 17.5562162,5.31297297 17.5562162,6.32216216 L17.5935135,6.57027027 L18.3421622,10.8681081 L17.5902703,11.3048649 L15.6443243,12.4410811 L15.6513514,12.4410811 C15.6513514,12.4410811 15.2135135,12.6659459 15.0108108,12.8043243 C14.2697297,13.3189189 14.1124324,14.0697297 14.5427027,14.38 C14.6486486,13.7675676 15.1324324,13.1281081 16.0389189,13.1281081 C16.6913514,13.1281081 17.1891892,13.4648649 17.5902703,13.9697297 C17.6940541,14.0972973 17.7918919,14.2335135 17.8832432,14.38 C17.9956757,14.5648649 18.1091892,14.727027 18.2210811,14.8832432 L13.2086486,14.8832432 C13.5772973,15.6237838 13.9275676,16.4081081 13.9275676,17.2605405 L13.9275676,28.3540541 C13.9275676,31.0394595 15.9924324,32.3210811 18.2259459,32.3210811 C19.9524324,32.3210811 20.1848649,32.2421622 21.1372973,33.1913514 C22.0854054,32.2421622 22.3183784,32.3210811 24.0459459,32.3210811 C26.2810811,32.3210811 28.3432432,31.0394595 28.3432432,28.3540541 L28.3432432,17.2605405 C28.3432432,16.4081081 28.692973,15.6237838 29.0632432,14.8832432 L24.0491892,14.8832432 C24.1610811,14.727027 24.2740541,14.5648649 24.3864865,14.38 C24.4794595,14.2335135 24.5767568,14.0972973 24.6783784,13.9697297 C25.0832432,13.4627027 25.5794595,13.1281081 26.2324324,13.1281081 C27.1378378,13.1281081 27.6210811,13.7675676 27.7286486,14.38 C28.1589189,14.0697297 28.0032432,13.3189189 27.2578378,12.8043243 C27.0583784,12.6659459 26.62,12.4410811 26.62,12.4410811 L26.627027,12.4410811 L24.6783784,11.3048649 L23.9291892,10.8681081 L24.6783784,6.57027027 L24.7145946,6.32216216 L24.7145946,6.32216216 Z" id="Fill-35"></path>
            <path d="M60.512973,15.4016216 C60.3697297,15.6291892 60.212973,15.8616216 60.0454054,16.0940541 C59.6259459,16.7027027 59.2091892,17.3205405 58.7951351,17.947027 C58.3821622,18.572973 57.96,19.1837838 57.5275676,19.7810811 L55.2313514,19.7810811 L55.2313514,11.1978378 L57.5275676,11.1978378 L57.5275676,16.4281081 L57.6183784,16.4281081 C57.7610811,16.1951351 57.9059459,15.9718919 58.0497297,15.76 C58.192973,15.5513514 58.3372973,15.3356757 58.4821622,15.1118919 L61.0535135,11.1978378 L63.3497297,11.1978378 L63.3497297,19.7810811 L61.0535135,19.7810811 L61.0535135,14.7248649 L60.9627027,14.7248649 C60.8064865,14.9491892 60.6583784,15.1735135 60.512973,15.4016216 Z M67.812973,16.2178378 L67.812973,19.7805405 L65.5162162,19.7805405 L65.5162162,11.1972973 L67.812973,11.1972973 L67.812973,14.4627027 L71.2291892,14.4627027 L71.2291892,11.1972973 L73.5259459,11.1972973 L73.5259459,19.7805405 L71.2291892,19.7805405 L71.2291892,16.2178378 L67.812973,16.2178378 Z M83.0086486,17.027027 C83.0086486,17.9854054 82.712973,18.6827027 82.1194595,19.1232432 C81.5275676,19.56 80.7362162,19.7810811 79.7464865,19.7810811 L75.6935135,19.7810811 L75.6935135,11.1972973 L77.9902703,11.1972973 L77.9902703,14.2513514 L79.6454054,14.2513514 C80.6697297,14.2513514 81.4859459,14.4951351 82.0962162,14.9794595 C82.7032432,15.4664865 83.0086486,16.147027 83.0086486,17.027027 Z M80.3718919,17.8151351 C80.5978378,17.6513514 80.7113514,17.3821622 80.7113514,17.0081081 C80.7113514,16.6572973 80.5978378,16.3935135 80.3718919,16.2178378 C80.1437838,16.0432432 79.8378378,15.9540541 79.4545946,15.9540541 L77.9902703,15.9540541 L77.9902703,18.0610811 L79.472973,18.0610811 C79.8437838,18.0610811 80.1437838,17.9794595 80.3718919,17.8151351 Z M112.554054,18.6562162 C112.152432,19.0427027 111.676216,19.3486486 111.123784,19.5708108 C110.571351,19.7913514 109.976216,19.9221622 109.341081,19.9562162 L109.341081,22.7832432 L107.167568,23.6097297 L107.167568,19.972973 C106.481622,19.9378378 105.858919,19.8118919 105.296216,19.5972973 C104.736757,19.3805405 104.254595,19.0762162 103.850811,18.6827027 C103.447027,18.2913514 103.136216,17.8227027 102.92,17.28 C102.703243,16.7351351 102.594595,16.1178378 102.594595,15.4264865 C102.594595,14.7967568 102.711351,14.2194595 102.946486,13.6989189 C103.182162,13.1789189 103.503784,12.7264865 103.912432,12.3481081 C104.322703,11.9681081 104.808649,11.6637838 105.369189,11.4345946 C105.93027,11.2064865 106.529189,11.0756757 107.167568,11.0394595 L107.167568,8.6372973 L109.323784,7.81135135 L109.323784,11.0394595 C109.970811,11.0756757 110.574595,11.2005405 111.132973,11.4172973 C111.690811,11.6340541 112.170811,11.9318919 112.572973,12.3118919 C112.975135,12.692973 113.291351,13.1454054 113.518919,13.6724324 C113.747027,14.1983784 113.861622,14.7837838 113.861622,15.4264865 C113.861622,16.1178378 113.742703,16.7318919 113.51027,17.2708108 C113.274595,17.8102703 112.957838,18.2718919 112.554054,18.6562162 Z M110.21027,18.0610811 C110.491892,17.9324324 110.740541,17.7502703 110.955135,17.5167568 C111.170811,17.2821622 111.344865,16.9967568 111.475135,16.6567568 C111.608108,16.3183784 111.674595,15.9264865 111.674595,15.48 C111.674595,14.7324324 111.46973,14.1027027 111.063243,13.592973 C110.656216,13.0843243 110.076216,12.8010811 109.323784,12.7416216 L109.323784,18.2886486 C109.633514,18.2654054 109.929189,18.1902703 110.21027,18.0610811 Z M107.167568,18.2718919 L107.167568,12.7416216 C106.409189,12.8010811 105.821622,13.0843243 105.405946,13.592973 C104.99027,14.1027027 104.781622,14.7324324 104.781622,15.48 C104.781622,15.9264865 104.844865,16.3145946 104.971892,16.647027 C105.098919,16.9810811 105.27027,17.2643243 105.487027,17.4978378 C105.703243,17.7335135 105.957297,17.9140541 106.247027,18.0437838 C106.535676,18.1724324 106.842703,18.247027 107.167568,18.2718919 Z M125.984324,17.2713514 C125.75027,17.8102703 125.431892,18.2718919 125.028649,18.6567568 C124.626486,19.0427027 124.149189,19.3486486 123.597297,19.5713514 C123.044324,19.7913514 122.451351,19.9221622 121.814595,19.9567568 L121.814595,22.7837838 L119.642703,23.6091892 L119.642703,19.972973 C118.955676,19.9378378 118.330811,19.8118919 117.771892,19.5972973 C117.210811,19.3805405 116.728649,19.0762162 116.325405,18.6832432 C115.920541,18.2913514 115.610811,17.8232432 115.394595,17.2794595 C115.175676,16.7351351 115.068649,16.1183784 115.068649,15.4264865 C115.068649,14.7962162 115.185946,14.22 115.421081,13.6989189 C115.655676,13.1789189 115.978378,12.727027 116.387568,12.3486486 C116.797297,11.9675676 117.282703,11.6637838 117.842703,11.4351351 C118.403784,11.2064865 119.003784,11.0756757 119.642703,11.04 L119.642703,8.63675676 L121.796216,7.81135135 L121.796216,11.04 C122.443784,11.0756757 123.047568,11.2005405 123.606486,11.4172973 C124.164324,11.6340541 124.645405,11.9324324 125.047027,12.3118919 C125.44973,12.6924324 125.765405,13.1459459 125.992973,13.6724324 C126.221081,14.1983784 126.335135,14.7837838 126.335135,15.4264865 C126.335135,16.1183784 126.218378,16.7318919 125.984324,17.2713514 Z M123.949189,16.6567568 C124.082162,16.3178378 124.145946,15.9259459 124.145946,15.4805405 C124.145946,14.7318919 123.943243,14.1027027 123.536757,13.5924324 C123.129189,13.0843243 122.548649,12.8005405 121.796216,12.7416216 L121.796216,18.2886486 C122.106486,18.2654054 122.402703,18.1902703 122.684865,18.0610811 C122.964324,17.9324324 123.214595,17.7502703 123.429189,17.5167568 C123.643784,17.2821622 123.817297,16.9967568 123.949189,16.6567568 Z M119.642703,18.2718919 L119.642703,12.7416216 C118.883243,12.8005405 118.296216,13.0843243 117.879459,13.5924324 C117.463784,14.1027027 117.256216,14.7318919 117.256216,15.4805405 C117.256216,15.9259459 117.318919,16.3140541 117.445405,16.647027 C117.572432,16.9805405 117.743243,17.2648649 117.961622,17.4983784 C118.177838,17.7335135 118.431892,17.9140541 118.72,18.0437838 C119.01027,18.1724324 119.316757,18.247027 119.642703,18.2718919 Z M45.927027,9.54756757 L45.927027,7.54864865 L54.8886486,7.54864865 L54.8886486,9.54756757 L51.6572973,9.54756757 L51.6572973,19.7908108 L49.2702703,19.7908108 L49.2702703,9.54756757 L45.927027,9.54756757 Z M92.5648649,11.2427027 L89.2032432,15.1918919 L92.5821622,19.7902703 L89.8740541,19.7902703 L86.8697297,15.6113514 L86.8697297,19.7902703 L84.5918919,19.7902703 L84.5918919,11.1972973 L86.8697297,11.1972973 L86.8697297,14.8897297 L89.9464865,11.2427027 L92.5648649,11.2427027 Z M100.222703,12.2421622 C100.58973,12.6297297 100.875676,13.0972973 101.079459,13.647027 C101.284324,14.1956757 101.387568,14.8113514 101.387568,15.4891892 C101.387568,16.1913514 101.281622,16.8221622 101.07027,17.3772973 C100.861081,17.9324324 100.569189,18.4032432 100.196757,18.7902703 C99.8227027,19.1751351 99.3789189,19.4724324 98.8616216,19.6762162 C98.3432432,19.8805405 97.7772973,19.9832432 97.1654054,19.9832432 C96.527027,19.9832432 95.9535135,19.8783784 95.4432432,19.6686486 C94.9308108,19.4567568 94.4956757,19.1578378 94.1340541,18.7724324 C93.772973,18.3859459 93.4918919,17.9189189 93.2945946,17.3681081 C93.0967568,16.8178378 92.9972973,16.2037838 92.9972973,15.5259459 C92.9972973,14.8221622 93.1,14.192973 93.3037838,13.6378378 C93.5086486,13.0832432 93.7972973,12.6135135 94.1691892,12.232973 C94.5437838,11.8535135 94.987027,11.5605405 95.5054054,11.3556757 C96.0227027,11.1508108 96.5875676,11.0481081 97.2005405,11.0481081 C97.8156757,11.0481081 98.3794595,11.1508108 98.8967568,11.3556757 C99.4140541,11.5605405 99.8567568,11.8562162 100.222703,12.2421622 Z M98.9632432,16.5427027 C99.0481081,16.2264865 99.0897297,15.8875676 99.0897297,15.5259459 C99.0897297,14.7416216 98.9281081,14.1064865 98.6,13.6210811 C98.2718919,13.1356757 97.7875676,12.8913514 97.1454054,12.8913514 C96.5405405,12.8913514 96.0816216,13.1378378 95.7648649,13.6297297 C95.4518919,14.1205405 95.2924324,14.7416216 95.2924324,15.4891892 C95.2924324,16.332973 95.4562162,16.9859459 95.7832432,17.4475676 C96.1113514,17.9075676 96.5837838,18.1405405 97.2005405,18.1405405 C97.5048649,18.1405405 97.772973,18.072973 98.0091892,17.9383784 C98.2454054,17.8043243 98.4416216,17.6167568 98.6005405,17.3772973 C98.7572973,17.1367568 98.8789189,16.86 98.9632432,16.5427027 Z M52.6562162,27.932973 C53.5027027,27.932973 54.1675676,28.1340541 54.6508108,28.5362162 C55.1335135,28.9383784 55.3751351,29.5454054 55.3751351,30.3572973 C55.3751351,31.1443243 55.14,31.747027 54.6697297,32.1659459 C54.1994595,32.5848649 53.5410811,32.7945946 52.6945946,32.7945946 L49.2697297,32.7945946 L49.2697297,24.4443243 L54.592973,24.4443243 L54.592973,25.3291892 L50.2059459,25.3291892 L50.2059459,27.932973 L52.6562162,27.932973 Z M54.4264865,30.3508108 C54.4264865,29.8572973 54.2740541,29.4718919 53.9708108,29.1951351 C53.667027,28.9183784 53.2459459,28.78 52.7075676,28.78 L50.2059459,28.78 L50.2059459,31.9097297 L52.7075676,31.9097297 C53.2545946,31.9097297 53.6778378,31.7778378 53.9772973,31.5135135 C54.2767568,31.2497297 54.4264865,30.8621622 54.4264865,30.3508108 Z M59.0437838,26.4194595 C59.7702703,26.4194595 60.3281081,26.5886486 60.7172973,26.9264865 C61.1064865,27.2643243 61.3010811,27.7708108 61.3010811,28.4464865 L61.3010811,32.7945946 L60.3902703,32.7945946 L60.3902703,32.1789189 L60.3648649,32.1789189 C60.0313514,32.4783784 59.6994595,32.6751351 59.3708108,32.7691892 C59.0416216,32.8627027 58.727027,32.9097297 58.4275676,32.9097297 C58.1794595,32.9097297 57.9318919,32.8735135 57.6837838,32.8016216 C57.4356757,32.7286486 57.2113514,32.6135135 57.0102703,32.4556757 C56.8097297,32.2983784 56.647027,32.0962162 56.5232432,31.8486486 C56.3989189,31.6016216 56.3372973,31.2989189 56.3372973,30.9410811 C56.3372973,30.6340541 56.3951351,30.3572973 56.5102703,30.1102703 C56.6254054,29.8627027 56.7881081,29.6518919 56.9978378,29.4772973 C57.207027,29.3021622 57.4551351,29.1681081 57.7416216,29.0745946 C58.0281081,28.9805405 58.3421622,28.9335135 58.6843243,28.9335135 C58.9578378,28.9335135 59.2340541,28.9610811 59.5118919,29.0156757 C59.7891892,29.0702703 60.0821622,29.1816216 60.3902703,29.3491892 L60.3902703,28.5735135 C60.3902703,28.0902703 60.2691892,27.7389189 60.0259459,27.5194595 C59.7837838,27.2994595 59.4194595,27.1891892 58.9340541,27.1891892 C58.6275676,27.1891892 58.3421622,27.2281081 58.0783784,27.3048649 C57.8140541,27.3816216 57.5502703,27.4843243 57.2864865,27.6124324 L56.9783784,26.8989189 C57.2778378,26.7562162 57.5940541,26.6405405 57.9275676,26.5524324 C58.2610811,26.4643243 58.632973,26.4194595 59.0437838,26.4194595 Z M60.3902703,30.1135135 C60.1351351,29.9686486 59.8794595,29.852973 59.6237838,29.7675676 C59.3681081,29.6821622 59.0616216,29.6394595 58.7043243,29.6394595 C58.2951351,29.6394595 57.9502703,29.7481081 57.6691892,29.9664865 C57.3886486,30.1843243 57.2475676,30.4983784 57.2475676,30.9091892 C57.2475676,31.3194595 57.3664865,31.6318919 57.6054054,31.8454054 C57.8437838,32.0594595 58.1886486,32.1659459 58.64,32.1659459 C58.9724324,32.1491892 59.2897297,32.0594595 59.5918919,31.8967568 C59.8940541,31.7345946 60.16,31.5372973 60.3902703,31.307027 L60.3902703,30.1135135 Z M66.9059459,32.7945946 L66.9059459,29.9086486 L63.6227027,29.9086486 L63.6227027,32.7945946 L62.7118919,32.7945946 L62.7118919,26.5221622 L63.6227027,26.5221622 L63.6227027,29.112973 L66.9059459,29.112973 L66.9059459,26.5221622 L67.8167568,26.5221622 L67.8167568,32.7945946 L66.9059459,32.7945946 Z M73.8454054,26.5481081 L71.0108108,29.4340541 L73.9221622,32.7945946 L72.8318919,32.7945946 L70.112973,29.6005405 L70.112973,32.7945946 L69.2021622,32.7945946 L69.2021622,26.5481081 L70.112973,26.5481081 L70.112973,29.3183784 L72.8064865,26.5481081 L73.8454054,26.5481081 Z" id="Combined-Shape"></path>
        </g>
    </g>
</svg>