<svg xmlns="http://www.w3.org/2000/svg" width="32" height="32" viewBox="0 0 32 32">
    <path fill="#4D76A1" fill-rule="evenodd" d="M2 0h28a2 2 0 0 1 2 2v28a2 2 0 0 1-2 2H2a2 2 0 0 1-2-2V2a2 2 0 0 1 2-2zm13.77 22.35h1.276s.385-.04.582-.244c.18-.188.175-.54.175-.54s-.025-1.65.77-1.893c.782-.24 1.787 1.595 2.853 2.3.806.533 1.418.416 1.418.416l2.849-.038s1.49-.089.784-1.218c-.058-.093-.412-.836-2.119-2.363-1.786-1.599-1.547-1.34.605-4.105 1.31-1.684 1.834-2.712 1.67-3.153-.155-.42-1.12-.308-1.12-.308l-3.207.019s-.238-.031-.414.07c-.172.1-.283.332-.283.332s-.508 1.303-1.185 2.412c-1.429 2.338-2 2.462-2.233 2.316-.543-.338-.408-1.36-.408-2.085 0-2.266.357-3.21-.694-3.455-.348-.081-.605-.135-1.497-.144-1.144-.011-2.113.004-2.662.263-.365.172-.646.556-.475.578.212.027.693.125.947.46.329.43.317 1.399.317 1.399s.19 2.667-.44 2.999c-.433.227-1.026-.237-2.3-2.359a19.41 19.41 0 0 1-1.145-2.288s-.095-.224-.264-.344c-.206-.146-.493-.192-.493-.192l-3.048.02s-.458.012-.626.203c-.15.171-.012.524-.012.524s2.387 5.383 5.089 8.095c2.477 2.487 5.29 2.324 5.29 2.324z"/>
</svg>
