<svg xmlns="http://www.w3.org/2000/svg" xmlns:xlink="http://www.w3.org/1999/xlink" width="150" height="150" viewBox="0 0 150 150">
    <defs>
        <path id="b" d="M134.627 113.919H14.488a4.798 4.798 0 0 1-4.805-4.792V32.46a4.798 4.798 0 0 1 4.805-4.791h120.14a4.798 4.798 0 0 1 4.805 4.791v76.667a4.799 4.799 0 0 1-4.806 4.792z"/>
        <filter id="a" width="108.5%" height="112.8%" x="-4.2%" y="-4.1%" filterUnits="objectBoundingBox">
            <feOffset dy="2" in="SourceAlpha" result="shadowOffsetOuter1"/>
            <feGaussianBlur in="shadowOffsetOuter1" result="shadowBlurOuter1" stdDeviation="1.5"/>
            <feColorMatrix in="shadowBlurOuter1" values="0 0 0 0 0.596078431 0 0 0 0 0.615686275 0 0 0 0 0.701960784 0 0 0 0.3 0"/>
        </filter>
        <path id="d" d="M139.944 108H19.806A4.798 4.798 0 0 1 15 103.208V26.542a4.798 4.798 0 0 1 4.806-4.792h120.138a4.798 4.798 0 0 1 4.806 4.792v76.666a4.799 4.799 0 0 1-4.806 4.792z"/>
        <filter id="c" width="108.5%" height="112.8%" x="-4.2%" y="-4.1%" filterUnits="objectBoundingBox">
            <feOffset dy="2" in="SourceAlpha" result="shadowOffsetOuter1"/>
            <feGaussianBlur in="shadowOffsetOuter1" result="shadowBlurOuter1" stdDeviation="1.5"/>
            <feColorMatrix in="shadowBlurOuter1" values="0 0 0 0 0.596078431 0 0 0 0 0.615686275 0 0 0 0 0.701960784 0 0 0 0.3 0"/>
        </filter>
    </defs>
    <g fill="none" fill-rule="evenodd">
        <circle cx="75" cy="75" r="75" fill="#E4E6EB"/>
        <path fill="#989DB3" fill-rule="nonzero" d="M128.694 119.837H8.556a4.798 4.798 0 0 1-4.806-4.791V38.379a4.798 4.798 0 0 1 4.806-4.792h120.138a4.798 4.798 0 0 1 4.806 4.792v76.667a4.799 4.799 0 0 1-4.806 4.791z"/>
        <g fill-rule="nonzero">
            <use fill="#000" filter="url(#a)" xlink:href="#b"/>
            <use fill="#CBCED5" fill-rule="evenodd" xlink:href="#b"/>
        </g>
        <g fill-rule="nonzero">
            <use fill="#000" filter="url(#c)" xlink:href="#d"/>
            <use fill="#FFF" fill-rule="evenodd" xlink:href="#d"/>
        </g>
        <path fill="#989DB3" fill-rule="nonzero" d="M68.85 99.75h-43.2a2.392 2.392 0 0 1-2.4-2.384V35.384A2.392 2.392 0 0 1 25.65 33h43.2c1.325 0 2.4 1.068 2.4 2.384v61.982a2.392 2.392 0 0 1-2.4 2.384z"/>
        <path fill="#333" fill-rule="nonzero" d="M47.674 39c-20.749 1.158-18.396 27.38-18.297 46.512a2.087 2.087 0 0 0 1.03 1.787c2.471 1.483 9.26 4.951 18.705 4.951l5.638-39.278"/>
        <path fill="#694B4B" fill-rule="nonzero" d="M47.892 39C35.37 39 34.5 54.24 34.5 54.24c7.218-1.227 11.653 1.838 18.958-1.227L47.892 92.25c9.323 0 16.025-3.464 18.465-4.946a2.09 2.09 0 0 0 1.016-1.785C67.473 65.973 69.915 39 47.893 39z"/>
        <path fill="#F0C087" fill-rule="nonzero" d="M68.725 90.627L56.52 85.44c-1.02-.434-1.683-2.191-1.683-3.318V78.75H41.162v3.372a2.792 2.792 0 0 1-1.683 2.576l-12.204 5.188c-1.529.65-2.525 2.174-2.525 3.864v3.628c0 1.31 1.041 2.372 2.325 2.372h41.85c1.284 0 2.325-1.062 2.325-2.372V93.75c-.75-1.69-1.746-1.723-2.525-3.123z"/>
        <path fill="#F3F4F8" fill-rule="nonzero" d="M68.643 90.556L56.463 85.5l-9.213 3.962-9.214-3.962-12.18 5.056a4.22 4.22 0 0 0-2.606 3.896v3.657a2.396 2.396 0 0 0 2.4 2.391h43.2c1.325 0 2.4-1.07 2.4-2.391v-3.657a4.22 4.22 0 0 0-2.607-3.896z"/>
        <path fill="#5B5D6E" fill-rule="nonzero" d="M29.952 95.994l-5.52-4.494a4.265 4.265 0 0 0-1.182 2.947v3.66c0 1.321 1.047 2.393 2.338 2.393H31.5v-1.22c0-1.28-.57-2.49-1.548-3.286zM71.25 98.102v-3.667a4.28 4.28 0 0 0-1.165-2.935l-5.537 4.486A4.273 4.273 0 0 0 63 99.29v1.21h5.913c1.29 0 2.337-1.073 2.337-2.398zM47.475 97.5h-.45c-.704 0-1.275-.557-1.275-1.245V88.5h3v7.755c0 .687-.571 1.245-1.275 1.245z"/>
        <path fill="#5B5D6E" fill-rule="nonzero" d="M48 89.197l-8.048-5.733c-.517-.368-1.253-.249-1.612.262l-1.59 2.265 4.934 6.561c.376.5 1.115.597 1.619.214L48 89.196z"/>
        <path fill="#5B5D6E" fill-rule="nonzero" d="M47.25 89.197l8.048-5.733c.517-.368 1.253-.249 1.612.262l1.59 2.265-4.934 6.561c-.376.5-1.115.597-1.619.214l-4.697-3.57z"/>
        <path fill="#F0C087" fill-rule="nonzero" d="M54.538 52.5c-7.017 6.955-20.788 1.391-20.788 12.519l.871 8.196a5.561 5.561 0 0 0 2.865 4.36l7.99 4.4c1.272.7 2.818.7 4.09 0l7.99-4.4a5.561 5.561 0 0 0 2.865-4.36l1.005-9.734a15.22 15.22 0 0 0 .064-2.083c-.525-3.54-5.548-6.116-6.952-8.898z"/>
        <path fill="#989DB3" fill-rule="nonzero" d="M122.125 42.75h-38c-1.311 0-2.375-1.008-2.375-2.25s1.064-2.25 2.375-2.25h38c1.311 0 2.375 1.008 2.375 2.25 0 1.243-1.064 2.25-2.375 2.25zM134.12 51.75H84.13c-1.314 0-2.38-1.008-2.38-2.25s1.066-2.25 2.38-2.25h49.99c1.314 0 2.38 1.008 2.38 2.25s-1.066 2.25-2.38 2.25zM88.5 73.5H84a2.25 2.25 0 0 1 0-4.5h4.5a2.25 2.25 0 0 1 0 4.5z"/>
        <path fill="#E5E7F1" fill-rule="nonzero" d="M126.643 73.048H98.357c-1.301 0-2.357-1.074-2.357-2.4 0-1.324 1.056-2.398 2.357-2.398h28.286c1.301 0 2.357 1.074 2.357 2.399s-1.056 2.399-2.357 2.399z"/>
        <path fill="#989DB3" fill-rule="nonzero" d="M88.5 82.5H84a2.25 2.25 0 0 1 0-4.5h4.5a2.25 2.25 0 0 1 0 4.5z"/>
        <path fill="#E5E7F1" fill-rule="nonzero" d="M134.118 82.5H98.382C97.067 82.5 96 81.492 96 80.25S97.067 78 98.382 78h35.736c1.315 0 2.382 1.008 2.382 2.25 0 1.243-1.067 2.25-2.382 2.25z"/>
        <path fill="#989DB3" fill-rule="nonzero" d="M88.5 93H84a2.25 2.25 0 0 1 0-4.5h4.5a2.25 2.25 0 0 1 0 4.5z"/>
        <path fill="#E5E7F1" fill-rule="nonzero" d="M117.6 93H98.4c-1.325 0-2.4-1.008-2.4-2.25s1.075-2.25 2.4-2.25h19.2c1.325 0 2.4 1.008 2.4 2.25 0 1.243-1.075 2.25-2.4 2.25z"/>
    </g>
</svg>
